<svg width="1920" height="421" xmlns="http://www.w3.org/2000/svg"><defs><linearGradient y2="1.354" x2=".497" y1=".042" x1=".5" id="b"><stop stop-color="#1A7F72"/><stop stop-color="#7ADBAE" offset="1"/></linearGradient><filter height="200%" width="200%" y="-50%" x="-50%" id="a"><feGaussianBlur in="SourceGraphic"/></filter></defs><path fill="none" d="M-1-1h421v538H-1z"/><path opacity=".3" filter="url(#a)" fill="url(#b)" d="M2229.67 39.204c-5.27.098-10.52.948-16.54 1.06-103.08 1.914-104.04-50-206.37-48.1-103.08 1.915-102.12 53.83-204.44 55.731-103.08 1.915-104.05-50-206.37-48.1-103.08 1.916-102.12 53.83-204.44 55.732-103.08 1.915-104.05-50-206.37-48.1-103.08 1.915-102.12 53.83-204.443 55.731-103.079 1.915-104.043-50-206.369-48.1C671.249 16.975 672.214 68.89 569.887 70.79c-103.079 1.915-104.043-50-207.122-48.086-102.326 1.901-101.362 53.817-204.441 55.732-102.326 1.9-103.29-50.015-206.369-48.1-102.326 1.9-101.362 53.816-204.441 55.731-63.201 1.174-87.642-17.94-121.027-32.374L-362 475.5 973 441l1256.67-18.5V39.204z"/></svg>