<svg width="260" height="305" xmlns="http://www.w3.org/2000/svg"><path fill="none" d="M-1-1h421v538H-1z"/><g fill="#1A7F72"><path opacity=".05" d="M15.79 82.19c7.357 3.117 25.184 2.834 25.184 2.834.284 0-3.961-11.62-4.244-12.47-3.962-8.219-16.413-21.823-26.317-20.406-7.358.85-11.32 8.22-9.621 15.021 1.697 7.085 8.772 12.187 14.997 15.02z"/><path opacity=".05" d="M22.015 134.053c7.64 1.134 23.487-3.401 24.902-3.968 2.547 9.069 5.943 17.855 9.621 26.924 2.264 5.101 4.528 10.203 7.075 15.304-1.415-2.267-2.83-3.968-3.113-4.251-5.942-6.802-21.506-16.721-30.845-12.753-6.791 2.834-8.772 11.052-5.376 17.287 3.396 6.235 11.885 9.353 18.393 10.487 6.792 1.133 20.375-2.551 24.054-3.685.849 1.984 1.98 3.968 2.83 5.668 4.527 9.353 9.338 18.422 13.582 27.491 1.415 3.117 2.83 6.518 4.245 9.636-1.415-1.984-2.264-3.401-2.547-3.684-5.942-6.802-21.506-16.722-30.844-12.754-6.792 2.834-8.773 11.053-5.377 17.288 3.396 6.235 11.885 9.353 18.394 10.486 6.508.85 19.242-2.267 23.487-3.401 1.415 3.401 2.547 6.802 3.679 9.92.849 2.267 1.698 4.534 2.263 6.801.566 2.268 1.132 4.535 1.981 6.802 1.132 4.251 2.264 8.786 3.113 13.037.566 2.834 1.132 5.951 1.698 8.786-1.415-3.118-4.528-9.353-4.81-9.92-4.811-7.652-18.677-19.838-28.582-17.288-7.074 1.701-10.187 9.636-7.923 16.155 2.547 6.801 10.187 11.053 16.696 13.036 7.074 2.268 22.921.284 24.902 0a611.404 611.404 0 002.547 13.604c1.698 8.786 2.83 17.004 3.678 23.806h6.509c-1.132-7.085-2.547-15.587-4.528-24.94-.849-4.818-1.981-9.919-3.112-15.304 1.131-.566 7.923-3.117 13.865-6.518 5.094 5.668 18.677 12.187 20.375 13.037-1.698 4.534-3.679 8.785-5.377 12.753-3.395 7.652-6.508 14.737-9.338 20.689h7.075c2.546-5.385 5.093-11.62 7.923-18.422 1.981-4.534 3.679-9.352 5.66-14.453 1.98.283 17.544 3.684 24.902 1.983 6.508-1.417 14.715-5.384 17.544-11.903 2.83-6.518.283-14.454-6.791-16.721-9.621-3.117-24.336 7.652-29.713 15.021-.283.567-3.113 5.385-5.094 8.785.849-1.983 1.415-3.967 2.264-6.235 1.415-4.251 2.83-8.502 4.528-13.036.566-2.268 1.415-4.535 1.981-6.802.849-2.267 1.132-4.818 1.698-7.085 1.415-5.385 2.264-11.053 3.395-17.005 3.679 1.417 16.696 5.952 23.771 5.385 6.791-.567 15.281-2.834 19.242-9.069 3.962-5.952 2.547-14.17-3.961-17.571-9.056-4.818-25.186 3.967-31.694 10.486-.283.283-4.528 5.668-6.792 8.502.566-3.401 1.132-6.802 1.415-10.486 1.132-10.203 2.264-20.405 3.113-30.608l.849-9.353c1.415.567 16.696 6.235 24.336 5.668 6.792-.566 15.281-2.834 19.243-9.069 3.962-5.951 2.547-14.17-3.962-17.571-9.055-4.818-25.185 3.968-31.694 10.486-.566.567-6.508 7.936-7.923 9.92.849-6.802 1.415-13.887 2.547-20.406 1.415-9.352 3.396-18.421 5.942-26.924.566.284 16.696 6.235 24.62 5.669 6.791-.567 15.28-2.835 19.242-9.07 3.962-5.951 2.547-14.17-3.962-17.571-9.055-4.818-25.185 3.968-31.693 10.486-.566.567-6.792 8.503-7.924 9.92.283-.567.283-1.134.283-1.701 2.83-9.069 6.792-17.571 10.754-25.507 2.263-4.534 4.81-8.785 7.357-12.753 2.83 1.417 16.13 7.935 23.204 8.219 6.792.283 15.564-1.134 20.092-6.802 4.527-5.385 3.961-13.887-1.981-17.855-8.489-5.668-25.468 1.134-32.826 6.802l-6.508 6.518c1.132-1.7 2.264-3.684 3.396-5.384a190.107 190.107 0 0112.451-17.005c2.264-2.834 4.244-5.384 6.225-7.652 3.679 0 18.111-.567 24.336-3.4 6.226-2.835 13.3-8.22 14.715-15.305 1.415-6.801-2.829-14.17-10.187-14.737-10.187-1.134-22.072 12.753-25.751 21.256-.283.85-3.962 12.47-3.962 12.47h.283c-1.981 2.267-3.961 4.534-6.225 7.085-3.962 4.818-8.49 10.486-12.734 16.721a183.317 183.317 0 00-13.3 21.256c-4.245 7.935-8.207 16.437-11.32 25.506v.284c0-3.118 0-11.337-.282-11.903-1.132-9.069-8.773-25.79-18.677-27.774-7.358-1.418-13.3 4.25-13.866 11.336-.566 7.085 4.528 14.454 9.621 18.988 5.66 5.102 21.507 10.203 22.922 10.486-2.83 8.786-5.094 18.138-6.792 27.774-.849 5.385-1.698 11.053-2.547 16.438v-5.101c-1.132-9.069-8.772-25.79-18.676-27.774-7.358-1.417-13.3 4.251-13.866 11.336-.566 7.085 4.527 14.454 9.621 18.988 5.094 4.535 18.677 9.069 22.072 10.203-.283 2.267-.566 4.251-.849 6.518-1.132 10.203-2.264 20.406-3.961 30.325-.566 3.401-1.132 7.085-1.698 10.486v-4.534c-1.132-9.069-8.773-25.79-18.677-27.774-7.357-1.417-13.3 4.251-13.866 11.336-.566 7.085 4.528 14.454 9.621 18.988 4.811 4.251 17.262 8.786 21.507 9.92-.849 3.4-1.415 7.085-2.264 10.486-.566 2.267-1.132 4.534-1.981 6.801-.849 2.268-1.415 4.535-2.264 6.802-1.415 4.251-3.112 8.503-4.81 12.754-1.132 2.834-2.264 5.668-3.396 8.218.566-3.4 1.415-10.486 1.415-11.052 0-5.952-1.981-15.871-6.226-22.673 0-.85 0-1.701-.283-2.551-1.132-7.085-7.64-12.186-14.715-10.202-9.904 2.55-16.129 19.838-16.695 28.907 0 .567.283 6.519.566 10.203-.566-2.267-.849-4.251-1.415-6.519-1.132-4.251-2.264-8.785-3.396-13.32-.566-2.267-1.415-4.534-1.981-6.801-.566-2.268-1.698-4.535-2.264-6.802-1.98-5.385-4.244-10.77-6.508-15.871 3.678-.85 17.261-4.251 22.638-8.502 5.377-4.252 11.036-11.053 11.036-18.138 0-7.086-5.659-13.037-13.017-12.47-10.187 1.133-18.96 17.287-20.657 26.073 0 .567-.85 7.085-.85 10.77-1.414-3.118-2.829-6.235-4.527-9.636-4.528-9.069-9.338-18.138-14.149-27.207l-4.245-8.503c1.415-.283 17.545-3.967 23.488-8.785 5.376-4.251 11.036-11.053 11.036-18.138 0-7.086-5.66-13.037-13.017-12.47-10.187 1.133-18.96 17.287-20.658 26.073 0 .567-.849 10.203-1.132 12.47-2.83-5.668-5.942-11.903-8.772-17.855-3.962-8.502-7.357-17.288-9.904-25.79.566-.283 17.545-3.967 23.77-8.785 5.377-4.252 11.036-11.053 11.036-18.139 0-7.085-5.66-13.036-13.017-12.47-10.187 1.134-18.96 17.288-20.657 26.074-.283.567-1.132 10.77-1.132 12.753-.283-.566-.283-1.133-.566-1.417-2.83-9.069-4.245-18.421-5.094-27.207-.566-5.101-.849-9.92-.849-14.737 3.113-.283 17.828-2.267 24.054-5.952 5.942-3.4 12.168-9.636 13.017-16.72.849-7.086-4.245-13.604-11.603-13.604-10.187 0-20.657 15.02-23.487 23.806-.283.567-1.132 5.385-1.98 9.07v-6.52c0-7.651.565-14.737.848-20.972.283-3.684.566-6.801 1.132-9.635 2.83-1.984 14.715-10.487 18.394-16.438 3.396-5.952 6.508-14.17 3.679-20.972C64.179 1.7 56.538-1.983 50.03 1.418c-9.056 4.818-11.32 22.956-9.904 32.025 0 .85 3.678 12.753 3.678 12.47h.283c-.283 2.834-.849 5.952-1.132 9.352-.566 6.235-1.132 13.32-1.415 20.973-.283 7.652-.283 16.154.566 24.94.85 8.785 1.981 18.138 4.528 27.49v.284c-1.698-2.551-6.225-9.353-6.791-9.92-5.943-6.801-21.507-16.721-30.845-12.753-6.792 2.834-8.772 11.053-5.377 17.288 3.396 6.235 11.602 9.352 18.394 10.486z"/><path opacity=".05" d="M196.613 86.157c.283 0 3.113-11.903 3.396-12.754 1.132-9.069-1.698-27.207-10.753-31.741-6.509-3.118-13.866.567-16.413 7.368-2.547 6.802.566 15.021 4.244 20.69 4.528 6.8 19.526 16.437 19.526 16.437z"/></g></svg>