<svg width="420" height="506" xmlns="http://www.w3.org/2000/svg"><defs><filter height="200%" width="200%" y="-50%" x="-50%" id="a"><feGaussianBlur in="SourceGraphic"/></filter></defs><path fill="none" d="M-1-1h422v508H-1z"/><g filter="url(#a)"><path fill="#fff" d="M20 0C8.954 0 0 8.954 0 20v461.148c11.5-.442 22.408 4.675 32.71 9.678l.139.069c10.378 5.092 21.099 10.352 32.573 10.316 10.315-.002 20.131-4.22 29.872-8.405 11.524-4.951 22.943-9.857 34.958-7.683 6.826 1.23 13.19 4.719 19.48 8.168 8.831 4.842 17.519 9.606 27.147 7.931 5.907-1.022 10.982-4.413 16.072-7.814 4.534-3.029 9.08-6.066 14.238-7.446 11.015-3.01 22.143 1.969 32.774 6.725 1.656.741 3.3 1.476 4.929 2.175 29.874 12.95 64.712 14.914 94.974 2.789 5.459-2.18 10.763-4.804 16.066-7.428 8.262-4.089 16.521-8.176 25.359-10.575 12.645-3.367 26.202-3.032 38.709.782V20c0-11.046-8.954-20-20-20H20z" clip-rule="evenodd" fill-rule="evenodd"/></g></svg>