<svg width="1920" height="1131" viewBox="0 0 1920 1131" fill="none" xmlns="http://www.w3.org/2000/svg">
<path d="M295.912 1108.1C474.283 1063.03 652.306 972.564 832.295 1006.85C967.968 1032.11 1087.66 1127.28 1226.01 1130.08C1367.21 1133.11 1488.83 1041.27 1617.41 983.861C1746 926.455 1926.24 918.558 1998.85 1038.93C2131.16 704.813 2288.43 381.31 2468.77 70.5714C1988.94 -155.177 1493.41 -346.306 987.519 -501.524C835.524 -548.481 669.648 -590.526 521.109 -534.724C349.675 -468.994 42.091 -399.455 -33.4998 -231C-166.97 64.2743 -78.1339 478.929 -167.626 790.945C-250.989 1083.93 47.7605 1171.68 295.912 1108.1Z" fill="url(#paint0_linear)"/>
<defs>
<linearGradient id="paint0_linear" x1="937" y1="-73.5002" x2="937" y2="1361.5" gradientUnits="userSpaceOnUse">
<stop stop-color="#1A7F72"/>
<stop offset="1" stop-color="#7ADBAE"/>
</linearGradient>
</defs>
</svg>
