<svg width="1920" height="1131" fill="none" xmlns="http://www.w3.org/2000/svg"><path d="M295.912 1108.1c178.371-45.07 356.394-135.536 536.383-101.25 135.673 25.26 255.365 120.43 393.715 123.23 141.2 3.03 262.82-88.81 391.4-146.219 128.59-57.406 308.83-65.303 381.44 55.069 132.31-334.117 289.58-657.62 469.92-968.359-479.83-225.748-975.36-416.877-1481.251-572.095-151.995-46.957-317.871-89.002-466.41-33.2C349.675-468.994 42.091-399.455-33.5-231-166.97 64.274-78.134 478.929-167.626 790.945-250.989 1083.93 47.761 1171.68 295.912 1108.1z" fill="url(#paint0_linear)"/><defs><linearGradient id="paint0_linear" x1="937" y1="-73.5" x2="937" y2="1361.5" gradientUnits="userSpaceOnUse"><stop stop-color="#1A7F72"/><stop offset="1" stop-color="#7ADBAE"/></linearGradient></defs></svg>