<svg width="1920" height="1131" xmlns="http://www.w3.org/2000/svg"><defs><linearGradient y2="1.137" x2=".422" y1=".288" x1=".422" id="a"><stop stop-color="#1A7F72"/><stop stop-color="#7ADBAE" offset="1"/></linearGradient></defs><path fill="none" d="M-1-1h421v538H-1z"/><path opacity=".5" fill="url(#a)" d="M295.912 1108.1c178.371-45.07 356.394-135.536 536.383-101.25 135.673 25.26 255.365 120.43 393.715 123.23 141.2 3.03 262.82-88.81 391.4-146.219 128.59-57.406 308.83-65.303 381.44 55.069 132.31-334.117 289.58-657.62 469.92-968.359-479.83-225.748-975.36-416.877-1481.251-572.095-151.995-46.957-317.871-89.002-466.41-33.2C349.675-468.994 42.091-399.455-33.5-231-166.97 64.274-78.134 478.929-167.626 790.945-250.989 1083.93 47.76 1171.68 295.912 1108.1z"/><path d="M436.251 309.133c18.14 13.075 36.72 19.32 70 32.5 44.101 17.466 90.706 28.052 127.5 42.5 28.117 11.042 49.887 23.873 52.5 32.5 1.448 4.786 0 10 0 22.5 0 10-1.201 22.687 2.5 42.5 3.785 20.265 15.9 51.522 35 70 25.536 24.705 64.77 45.665 107.5 60 54.72 18.357 119.855 29.998 184.999 32.5 72.446 2.782 140.477-6.535 185 0 25.824 3.79 27.5 15 27.5 30 0 27.5-.247 73.234-20 130-24.719 71.03-44.654 135.959-87.5 222.499-23.4 47.262-55.706 84.628-85 107.5-28.42 22.189-57.433 31.249-92.5 32.5-52.466 1.871-97.638 1.229-147.5-5-50.169-6.268-87.844-8.379-115-15-33.035-8.056-57.436-22.552-67.5-35-7.028-8.695-5-25-5-42.5s.194-33.032 12.5-40c17.94-10.157 32.96-14.088 80-7.5 36.05 5.049 67.15 20.54 90 35 12.318 7.795 19.044 15.19 20 17.5 1.353 3.266 2.5 5 15 12.5l17.5 2.5 32.5 7.5h20" stroke-opacity="null" stroke-width="null" stroke="null" fill="none"/></svg>