<svg width="177" height="230" fill="none" xmlns="http://www.w3.org/2000/svg"><path d="M102.528 86.198c-11.11-3.73-24.276-.414-35.796-1.243-3.292-.414-6.584-1.658-9.875-2.072-3.703 0-7.818-.414-11.52-.414-6.584 0-13.579-.83-20.162.828-2.88.83-2.88 5.388 0 5.802 6.583 1.658 13.578 1.243 20.161 1.658h.412c-1.646 3.73-3.292 6.63-5.35 9.946-2.468 3.73-5.348 6.63-7.405 10.775-3.703 7.045-5.76 14.504-3.292 22.378 4.938 14.09 20.984 18.234 34.15 15.748 2.88-.415 6.172-1.658 9.464-3.316v.415a85.357 85.357 0 000 14.504c.411 5.802 9.052 5.802 8.64 0-.411-4.973 0-9.531 0-14.504.412-7.874 0-15.748 0-23.207 0-7.045-.411-14.09-.411-21.136-.412-4.144.411-9.117-1.646-12.846 2.88-.415 5.76-.415 8.64-.83 2.88 0 5.76 0 8.23.415 1.645.415 3.702.829 5.348-.414 1.646-.415 1.646-2.072.412-2.487zm-26.333 17.406c-.823 7.045-1.234 14.09-1.646 21.135 0 3.315-.411 6.216-.411 9.531-.823.829-1.235 1.658-2.058 2.487-1.234.829-2.88 1.658-4.114 2.486-2.88 1.244-6.172 2.072-9.052 2.072-6.172.829-13.166-.828-17.692-5.801-4.938-5.802-3.292-12.847-.823-19.478 1.646-4.144 3.291-8.288 4.937-12.847 1.235-3.73 2.88-7.874 3.292-12.018 2.88 0 5.76.415 8.229 0 3.703 0 6.994-1.657 10.698-1.657h10.697c.412 4.558-1.646 9.531-2.057 14.09zM57.268 74.18c.823 0 1.646.415 2.88 0h.412-.412c1.646.415 3.704 0 4.938-1.243 1.234-1.243 2.057-3.315 2.057-4.973v-2.486c0-1.658-.823-3.316-2.469-4.559-1.234-.829-2.88-1.243-4.526-1.243-1.645 0-3.291.414-4.525 1.657-.412.415-.412.415-.412.83-.823.414-1.646 1.243-2.057 2.071-.823 2.072-.823 4.144 0 6.217.823 2.486 2.469 3.73 4.114 3.73z" fill="#fff"/><path d="M175.766 151.676l-2.469-1.244c-2.88-2.072-3.703-5.801-3.703-9.117 0-4.558.412-8.702-1.234-12.846-2.057-4.973-6.172-8.703-11.109-10.775 2.057-1.243 3.703-2.901 5.349-4.973 2.88-3.73 3.703-8.288 4.526-12.847.823-3.315 2.057-5.802 4.114-8.288 1.235 0 2.057-1.244 2.469-2.072 0-.415 0-.415.411-.83 1.235-2.9-1.234-4.972-3.703-4.143-2.468-1.244-4.114-2.901-5.76-5.388-2.469-2.9-4.114-6.216-6.995-8.288-3.291-2.901-7.817-4.559-12.343-4.559 1.234-4.144 1.646-8.702.823-12.432-.412-2.486-5.76-13.261-5.349-16.991.823-.829 2.057-1.658 2.469-2.486 1.234-2.073-.823-4.145-2.88-3.73-2.058.829-4.115 1.657-6.172 2.072-2.469.414-4.938.414-6.995 0-3.703-.415-7.406-.829-11.52 0-1.646.414-3.703.829-5.761 1.243 0-2.486-.411-4.973-1.234-7.46-1.234-3.73-3.703-7.044-6.583-9.53-2.88-2.487-8.23-5.803-8.23-9.947 0-2.072-2.468-2.9-4.114-1.658-1.645 1.244-2.88 2.901-4.937 3.73-1.646.829-3.292 1.243-4.938 1.658-3.703.829-7.817 1.657-11.109 3.73a26.282 26.282 0 00-8.229 8.288c0 .414-.411.414-.411.829-2.057-4.559-5.349-8.289-9.052-10.775-3.703-2.072-7.818-2.487-11.932-3.73-3.703-1.243-6.172-4.144-8.229-7.46C29.29-.413 26 0 26 2.902c0 9.117-6.172 15.748-8.64 24.036-1.235 3.73-.824 7.46.41 10.775-3.702-3.316-7.817-6.216-12.754-7.46-3.703-.828-7.406-.828-11.52-.414-3.704.414-8.641 1.243-11.933-1.658h-.411c-1.235-.829-2.88 0-2.469 2.072 1.234 4.973.412 10.36-.411 15.334-.823 4.558-1.235 9.117-.412 14.09.412 2.9 1.646 6.63 3.703 9.531-3.291 0-6.995.415-10.286 1.658-4.526 1.658-8.229 4.559-11.52 7.46-2.88 2.486-5.35 4.972-9.053 6.63h-1.645c-.823 0-1.646.829-1.646 1.658v.414c0 .415.411.829.823.829l.823 1.243c.823.829 1.234 2.072 1.645 3.316 1.235 2.486 2.47 4.972 3.292 7.873 0 .415.412.415.412.829 0 .415.411.829.411 1.243.411 1.244 1.234 2.901 1.646 4.145 1.646 3.729 4.526 6.63 7.817 8.702 1.235.829 2.058 1.244 3.292 1.658-2.469 1.243-4.526 2.901-6.172 4.973-2.469 2.901-4.114 5.802-5.349 9.531-.823 1.244-1.645 4.559-2.468 7.045-.412.829-.823 1.658-1.235 2.073-.411.828-.823 1.243-1.234 1.657-1.234 1.243-2.469 1.658-3.703 3.316-.823 1.243 0 2.486.823 2.9 0 0 0 .415.411.415.412.414 1.235.414 2.057 0 .412.414 1.235.829 1.646.829 1.646 1.243 2.88 2.486 4.526 3.729 2.469 2.487 4.938 5.388 8.23 7.045 4.525 2.487 9.463 3.316 14.4 3.316h.411c-.411.414-.411.829-.411 1.243-1.646 2.901-2.057 6.216-2.057 9.532 0 4.144 1.234 7.873 2.057 12.018.411 3.315-.823 7.459 1.646 10.36 1.646 2.072 4.937 2.486 7.406 2.901 3.291.414 6.583.414 9.875.414 2.88 0 6.171 0 9.051-.829 2.47-.828 4.526-2.072 6.584-3.315 0 3.315.411 7.045 2.057 9.946 2.057 3.73 4.937 6.216 7.406 9.532 2.469 3.315 3.292 7.873 4.526 11.603.823 2.487 3.703 3.315 5.76 1.658 2.88-2.901 5.76-5.802 9.875-7.045 4.114-1.243 7.817-2.072 10.698-4.973 2.468-2.487 3.703-5.388 4.526-8.703v.415c1.645 4.144 4.937 6.63 9.051 8.288 3.292 1.243 6.995 1.657 10.698 2.901 3.292 1.243 5.76 2.901 7.818 6.216 1.645 2.901 5.76 2.072 6.583-.829 2.057-7.045 7.817-12.018 11.109-18.234.823-1.658 1.646-3.315 1.646-5.388 2.057 1.244 4.526 2.487 7.406 2.901 4.937.829 9.875 0 14.812-1.657 4.526-1.658 9.463-3.316 14.401-1.658 3.703 1.243 5.349-3.73 3.291-6.216-2.88-3.73-1.645-7.46-.411-12.018 1.234-4.144 1.646-8.288.411-12.433-.411-1.657-.823-2.901-1.645-4.558 2.468.414 4.937.414 7.406-.415 4.114-.828 7.406-3.729 10.697-6.216 3.292-2.486 7.406-6.216 11.521-4.144 2.469 2.072 4.526-1.658 2.057-3.315zM145.73 71.279c3.703 1.244 6.995 3.316 9.464 6.631 2.88 3.73 5.349 8.703 9.463 11.604-.823 1.243-2.057 2.486-2.469 4.144-1.646 4.144-1.645 8.288-3.291 12.432-2.058 4.559-6.172 7.46-10.698 8.703h-3.703c-.823 0-1.234.414-1.646.829-.823-12.433-4.937-24.865-10.286-36.054 0-.415-.411-.415-.411-.415.822.415 2.057.415 2.88-.414 3.291-1.658 5.349-4.144 7.406-7.045 1.234-.415 2.468-.415 3.291-.415zm-26.744-33.567c4.115.414 7.818 1.243 11.932 1.243 1.646 0 3.292 0 4.526-.414 0 4.558 1.646 9.117 2.88 13.26 0 .415 0 .83.412 1.244v3.315c0 2.072-.412 4.145-1.235 6.217-1.234 3.73-3.291 7.045-6.583 9.117-.823.414-1.646 1.243-1.646 2.072-6.171-9.946-14.4-19.478-23.864-26.108 2.469-1.658 3.703-5.388 4.115-8.289.411 0 .823-.414 1.234-.414 2.469-1.243 5.349-1.658 8.229-1.243zM66.732 21.964c2.057-2.486 4.938-4.144 8.23-4.973 5.348-1.658 11.52-2.072 15.634-5.802.412.415.823 1.243 1.234 2.072.823 1.658 2.058 2.901 3.292 4.145 2.469 2.486 4.526 4.972 5.76 8.288 1.235 3.315 1.235 6.63 1.235 9.946 0 .828 0 1.243-.412 2.072 0 .414-.411 1.657-.411 1.657-.412 1.244-1.235 1.658-1.646 2.901-.411.415-.411.83-.411 1.244-11.521-6.217-25.51-8.289-38.265-8.703 1.234-.414 2.057-1.243 2.468-2.487.823 0 1.235-.828.823-1.657-1.645-2.901.823-6.63 2.47-8.703zM23.53 25.279c2.469-5.387 5.76-10.36 6.995-16.162 1.234.829 2.057 2.072 3.291 2.901 3.292 2.487 7.406 2.901 11.52 4.144 7.407 2.487 10.287 9.946 11.521 16.991.412 1.244.823 2.072 2.058 2.072-10.287 0-24.276.83-34.15 6.63-.824-1.657-2.058-3.729-2.47-5.386-1.234-4.145-.41-7.874 1.235-11.19zm-61.306 76.667c-2.469-4.558-4.526-9.117-7.406-13.261l-.411-.415c6.171-1.657 10.697-8.288 16.869-10.774 4.937-2.072 13.166-2.901 17.692.828 0 0 .412 0 .412.415-1.646 3.315-3.292 6.63-4.526 9.946-2.88 7.045-4.115 14.919-4.938 22.378-1.234-.414-2.468-.829-3.703-.829-2.057-.414-4.526-.829-6.583-1.657-3.703-1.658-5.76-3.73-7.406-6.631zm14.4 54.288c-3.702-.414-7.405-1.243-10.697-3.315-3.291-2.486-6.583-4.973-10.286-6.216 1.234-1.243 2.057-2.487 2.88-3.73 2.057-3.315 2.88-7.459 4.526-11.189 0 0 0-.415.411-.415 0-.414.412-.828.412-1.243.411-.829.823-1.657 1.646-2.486 1.234-1.658 2.468-3.316 4.114-4.144 1.646-1.244 2.88-1.658 4.938-2.073 1.645-.414 3.291 0 5.348 0 0 6.631.823 13.262 2.88 19.478 1.235 4.559 2.88 9.117 5.35 13.261-1.646.829-2.47 1.243-4.527 1.658-2.057.414-4.937.414-6.994.414zm27.98 38.126c-3.292.829-6.995.829-10.287 1.244-2.88 0-5.349.414-8.229.414.823-2.901.823-6.216.412-8.703-.823-4.973-2.47-9.531-2.47-14.09 0-3.315 1.647-6.216 3.704-8.702l1.234-1.244c1.235-.414 2.469-.828 3.292-1.657 5.76 9.531 13.99 17.82 23.041 24.036-.823.829-1.234 2.072-2.057 2.901-2.469 2.901-5.35 4.973-8.64 5.801zm34.972 22.379c-2.057.829-4.114 2.486-6.171 3.73-.412-2.073-1.235-4.145-2.469-5.802-2.057-3.73-5.349-6.216-7.817-9.532-2.058-2.901-2.88-6.216-2.88-9.531v-6.631c9.463 5.802 20.16 9.946 30.858 11.604 1.234 0 2.057.414 3.292.414-1.235 4.144-1.235 8.703-4.526 12.018-3.292 2.487-6.995 2.487-10.286 3.73zm57.192-10.775c-2.469 4.144-5.349 7.874-7.818 11.604-1.234-1.244-2.88-2.487-4.526-3.316-3.291-1.657-6.994-2.072-10.286-2.901-3.291-.828-6.583-1.657-8.64-4.973-.823-1.657-1.235-2.9-2.058-4.558 4.938 0 9.875 0 14.813-.829 6.994-1.243 16.87-3.315 19.75-10.775v-.414 1.243c.41 2.072 1.234 3.73 1.234 5.802.411 3.315-.412 6.216-2.47 9.117zm20.161-7.045c-3.292 0-6.583-.414-9.463-2.901l-1.235-1.243c-.411-2.072-.823-3.73-1.234-5.388-.412-.828-.412-1.657-1.234-2.486 0 0 .411 0 .411-.414 4.937-2.901 9.875-6.217 11.521-11.604.411-.829-.823-1.658-1.646-.829-3.292 3.73-8.229 6.631-12.755 9.117-2.469 1.243-4.938 2.487-7.818 3.73-2.88.414-4.937 1.658-7.406 2.901a41.524 41.524 0 01-10.286 2.486c-6.995 1.244-13.99.829-20.984 0-13.578-1.657-26.744-7.874-37.442-16.162-24.275-17.82-34.561-50.144-27.155-79.567C-7.74 88.27-4.037 80.397.489 72.937c2.469-3.73 4.937-7.46 7.817-10.775 2.47-2.9 5.76-5.387 6.172-9.531 0-.415-.411-1.243-.823-1.243-3.703.414-6.172 2.9-8.64 5.387-3.292 2.9-6.172 6.216-9.052 9.946l-2.469 3.73c-3.291-.83-5.76-2.073-7.406-5.388s-2.88-7.045-2.88-10.36c-.411-4.559 1.234-9.532 1.646-14.09a22.697 22.697 0 000-7.46c1.646.415 2.88.829 4.937.829 3.703 0 7.818-.414 11.52.415 6.995 1.657 11.933 7.044 16.87 12.432-.411.414-.411.829-.823.829-.823 1.243.823 2.486 2.058 2.072 5.348-2.901 10.286-5.802 16.046-7.045 6.172-1.658 12.755-2.072 19.338-2.072 12.755 0 25.921 2.072 37.442 7.46 25.921 12.017 42.379 43.098 43.202 71.278.412 7.874-.823 16.163-3.291 23.622-1.235 3.315-2.469 6.631-4.115 9.532-.411.414-.823 1.243-.823 2.072-2.057 3.729-3.291 7.874-6.172 11.189-.411.414 0 .414.412.414 3.291-1.243 7.406-2.486 9.875-4.973l1.234-1.243c1.646 1.243 3.292 3.315 4.526 4.973 2.057 2.901 4.114 6.631 4.526 10.36.411 4.145-1.646 7.874-2.469 11.604-.411 2.072-.823 4.559-.411 6.631-7.818.414-14.401 5.387-21.807 5.387zm36.207-40.613c-2.88 1.658-6.583 2.072-9.874 1.658-1.235-.414-2.469-.414-3.703-.829-1.235-1.657-2.881-2.901-4.115-4.144.412-1.243 1.234-2.072 1.646-3.315 3.292-7.46 5.349-15.334 6.172-23.622 0-2.072.411-4.144.411-6.216 1.646 0 3.292-.414 4.937-.829 3.292.415 6.172.829 9.052 2.487 3.703 2.072 6.584 5.801 7.818 10.36.823 3.73.411 7.874 1.234 12.018.412 1.658.823 2.901 1.646 4.144-5.76.829-10.698 5.802-15.224 8.288z" fill="#fff"/></svg>