<svg width="213" height="230" fill="none" xmlns="http://www.w3.org/2000/svg"><path d="M132.233 92.407c3.69-.814 7.38.814 10.66-1.221.82-.407.82-1.629 0-2.443-2.87-2.035-7.38-1.22-10.66-2.035a40.701 40.701 0 00-9.839-1.221c-7.79.407-15.58 1.221-23.37 1.221-7.789 0-15.579-.407-23.368-.407-3.69 0-7.38 0-11.07.407-3.69 0-6.97-.407-9.84 2.035-.82.815-.82 2.443 0 3.257 2.87 2.442 6.15 2.035 9.84 2.442 3.69 0 7.38.408 11.07.408 7.38.407 14.76.814 22.139.814.41 4.07-.82 8.955-.82 13.026 0 3.664 0 9.363-3.28 11.806-3.28 2.442-7.79 3.663-11.89 4.07-1.64.407-3.69.407-5.33.407-1.64 0-2.87-.814-4.51 0-.409 0-.819.408-.819.815v.814c0 .814.41 1.221.41 1.628.82 2.85 1.64 6.106 2.46 8.956 1.23 3.664 2.87 7.327 4.92 10.584 2.05 3.257 4.1 6.513 6.15 10.177 1.64 2.849 2.87 7.327 5.33 9.363 3.689 3.256 7.789-2.036 5.329-4.885-2.87-6.106-6.97-11.806-10.25-17.912-1.64-2.849-3.28-6.106-5.33-8.955-.82-1.222-1.64-2.85-2.87-4.071 1.64.407 3.28.814 4.51.814 6.15.407 12.71-1.628 17.22-5.292 5.33-4.071 6.559-10.584 6.149-17.097-.409-4.885 0-10.992-2.049-15.877l18.449-1.22c4.1 1.22 7.379.406 10.659-.408zM95.745 76.124c1.23.814 2.05 1.221 3.28 2.035.41 0 .82.407 1.23.407.82 0 1.23.407 2.05.407 1.229 0 2.459-.407 3.689-.814s2.05-1.628 2.87-2.442c.82-1.221.82-2.443.82-3.257v-1.22c0-.407 0-.814-.41-1.221 0-.407-.41-1.222-.82-1.629-.41-.814-1.23-1.628-1.64-2.035-.41-.407-.82-.814-1.23-.814-.82-.407-1.23-.407-2.459-.814h-2.87c-.82 0-1.64.407-2.05.814-.41 0-.41.407-.82.407-.41.407-1.23.814-1.64 1.221-.82.814-1.64 2.035-2.05 3.257 0 .407-.41 1.221 0 1.628 0 .407 0 1.221.41 1.628 0 .407.41 1.629 1.64 2.443z" fill="#fff"/><path d="M210.95 157.54c-1.64-.814-3.69-1.221-4.92-2.85-1.23-1.628-1.23-4.885-1.23-6.513-.82-6.513-1.23-13.434-4.1-19.54-1.64-3.664-4.509-8.141-8.199-10.584 1.64-1.221 3.69-2.035 5.33-3.664 4.099-3.663 6.149-8.955 6.969-14.247.41-4.478 0-8.956 0-13.027 0-3.664.82-8.549 4.51-10.177.41 0 .41-.407.82-.407 2.46-1.628 2.05-6.106-1.64-6.106-2.46 0-4.51.407-6.56-.407s-3.69-2.443-5.329-4.071c-3.69-3.664-6.97-7.735-11.48-9.77-4.92-2.443-11.069-3.257-16.399-2.035-.82 0-1.64.407-2.46.814 1.64-7.735 2.46-15.47-1.64-22.797-2.87-4.885-6.97-8.548-11.07-12.212-3.689-3.664-7.789-9.77-7.379-15.47 0-2.442-3.28-3.663-4.92-2.035-1.64 1.629-3.28 4.071-5.74 5.293-2.05 1.22-4.51 1.628-6.969 1.628-5.33.814-11.07 0-16.4 1.628-5.33 1.221-9.839 4.478-12.71 9.363-.41 1.221-1.23 2.443-1.64 3.664-3.689-6.514-10.249-11.399-16.808-13.841-9.02-3.257-22.14 1.628-27.47-8.142C51.877-1.22 46.138 0 46.548 4.071c1.23 10.99-10.25 17.911-14.35 27.274-2.05 4.885-2.05 10.584-.41 15.47.41 1.628 1.23 3.256 2.05 4.884-8.199-3.256-16.809-4.07-25.008 1.221-7.38 4.478-13.12 14.655-22.96 13.841-4.1-.407-4.51 4.885-2.05 6.92C-5.11 81.01-9.62 94.85-4.7 105.434c1.64 3.663 4.1 6.92 6.56 9.362-4.1 2.443-6.97 6.921-9.02 11.399-1.64 3.663-2.46 7.734-2.87 11.805-.41 4.071-.41 8.142-1.23 12.212-.41 2.036-.82 4.071-2.05 5.699-.82 1.629-2.46 2.443-3.28 4.071-.41.407 0 1.222.41 1.629.41.407 1.23.407 1.64.407v.407c1.23 1.628 4.1 2.035 6.15 2.849 2.05.814 4.1 2.036 5.74 3.257 4.1 2.85 7.38 6.92 11.89 9.363 4.51 2.442 9.84 3.256 15.17 3.663 2.459 0 4.509-.407 6.969-1.221 0 0 .41 0 .41-.407a46.88 46.88 0 00-1.23 15.062c.41 6.106 3.69 10.991 7.38 15.469 4.1 4.885 9.84 9.77 9.84 16.69 0 4.885 7.379 4.885 7.379 0v-1.628c5.74-4.071 14.76-1.628 21.319-2.442 5.74-.407 11.48-3.664 15.58-7.735 2.049-2.035 3.279-4.478 4.099-7.327 2.46 4.885 7.79 9.77 11.479 12.212 4.51 3.257 9.84 4.071 15.58 4.071 2.87 0 5.74 0 9.019.407 3.69.407 6.15 2.442 9.43 4.071 2.46 1.628 5.33-.814 4.51-3.664-1.23-4.071 3.28-7.734 6.149-10.177 3.69-2.85 7.79-5.699 9.84-10.177 4.1-7.327 4.51-15.469 2.46-22.796 4.92.814 10.659-.408 15.169-2.443 5.33-2.442 10.25-6.513 14.76-10.177 2.05-1.628 3.69-3.664 6.559-4.071 2.46-.407 4.92-.407 7.38-.407 4.1-.814 6.15-5.699 2.46-7.327zm-36.898-98.106c4.919.407 9.019 2.85 12.299 6.513 4.1 4.478 8.61 9.77 14.349 11.398-2.46 5.292-2.46 11.805-2.46 17.097 0 4.478-.409 9.363-3.689 12.62-3.69 4.071-8.61 4.885-13.53 6.513-.41-17.504-5.74-34.602-17.219-48.442 0-.407 0-.407.41-.814.41-.815.41-2.036.82-2.85 2.05-1.221 4.92-2.035 9.02-2.035zM41.627 29.717c4.1-5.7 9.43-11.398 11.48-17.912 5.74 3.257 13.53 3.257 20.499 3.664 9.43.814 18.86 8.549 20.09 17.911-8.61.815-17.22 2.85-25.01 5.293-9.02 2.442-18.04 7.734-26.239 14.654-.82-1.22-1.23-2.442-2.05-3.256-1.23-2.036-1.64-4.478-2.05-6.514-.41-5.699.82-9.77 3.28-13.84zM25.638 173.009c-4.92 0-10.25-1.221-14.35-3.664-4.1-2.442-7.379-6.106-11.889-7.734-2.05-.815-4.92-2.036-7.79-2.036.82-.814 1.64-2.035 2.05-2.849 2.05-3.664 2.87-7.735 3.69-11.806.41-2.035.41-4.07.82-6.106 0-.814 0-1.628.41-2.442v-1.629c.82-3.663 2.46-6.92 4.92-9.77l2.46-2.442s.41-.407 1.23-.814c0 0 1.23-.407.82-.407 0 0 1.64-.407.82-.407h.82c1.23.407 2.05.814 3.69 1.221h1.23c.41 2.035.41 3.664.82 4.478 2.46 13.84 7.79 26.867 15.989 38.265 1.23 2.036 2.87 3.664 4.51 5.699-3.69 0-6.56 2.443-10.25 2.443zm47.968 43.557c-5.33.407-13.12 0-18.04 3.257-1.23-4.071-4.1-8.142-7.379-11.398-3.69-4.071-8.2-8.142-9.43-13.841-.82-3.664-.82-8.549-.41-13.027 0-1.628 0-4.07 1.23-5.292.41-.407.82-.407 1.23-.814 6.15 6.106 13.53 11.806 21.32 15.469 6.56 2.85 13.119 4.478 20.498 5.699 3.69.815 6.97 1.222 10.66 1.629-2.05 4.478-1.64 9.363-5.74 12.619-4.1 4.071-9.02 5.292-13.94 5.699zm80.766-10.991c-2.869 3.257-6.149 5.699-9.019 8.549-1.64 1.628-2.46 3.664-3.28 5.292-3.28-2.035-6.97-2.85-11.07-3.257-5.329-.407-10.659.407-15.989-1.221-3.69-1.221-6.56-4.071-9.429-6.513-2.46-2.443-5.33-5.699-4.92-9.363 2.05 0 4.1 0 6.149-.407 4.92-.814 2.87-8.142-2.049-7.328-7.38 1.222-14.76-.407-22.14-1.628-6.15-1.221-12.299-2.442-18.039-5.292-10.66-5.292-19.269-13.841-26.239-23.611-7.38-10.177-12.709-21.575-15.989-33.787-.82-3.257-1.64-6.106-2.05-9.363v-1.221c-.41-2.036-.41-4.071-.82-5.699 0-1.222-.41-3.257-.41-4.478 0-.814-.41-1.221-.82-1.221-4.1-.408-5.33 3.663-5.74 8.548-.82-.407-1.64-.814-2.87-.814-1.23-.814-2.46-2.035-3.69-2.85C2.27 106.248.22 101.77-.19 96.478c-.82-8.549-1.64-17.505-6.56-24.018 6.97-2.85 11.48-7.327 16.4-11.398 3.69-3.257 8.2-5.292 13.12-5.292 4.509 0 8.609 1.628 12.709 4.07-8.61 9.77-14.76 21.983-15.17 34.195 0 3.664 4.92 3.257 5.33 0 3.28-23.203 24.599-42.743 46.738-48.85 11.89-3.256 25.829-6.512 38.128-3.256 5.74 1.628 11.48 2.85 17.22 4.885 2.049.814 4.099 1.629 6.149 2.035 1.64.408 5.33.408 6.56 1.222.82.407 1.64 0 1.23-1.221-2.46-4.885-5.74-6.107-10.66-8.142-6.149-2.442-12.299-4.885-18.449-6.513-3.28-.815-6.969-1.629-10.659-1.629.41-2.035.41-3.663 1.23-5.292.82-2.85 2.87-5.292 4.919-7.327 3.69-3.257 9.02-3.257 13.94-3.664 6.56-.407 15.989-.814 20.909-5.292v2.85c.41 2.442 1.64 4.885 3.28 6.92 2.87 4.07 6.969 7.735 10.249 12.212 3.28 4.478 4.1 8.956 2.87 14.655-.82 3.664-2.05 7.328-3.28 11.398-2.87-.407-5.329 3.257-3.28 6.107 9.43 10.99 17.63 24.017 19.68 38.672 2.46 14.248 0 29.31-4.92 42.337-4.51 12.212-12.3 24.424-23.779 31.345-4.51 2.849-9.43 5.292-13.94 8.141-4.509 2.85-9.019 4.885-14.349 6.106-.82 0-.82 1.222-.41 1.629 3.28 3.664 9.84.814 13.53-.814 5.739-2.443 11.069-5.699 16.809-8.549 3.69-1.628 6.969-4.071 9.839-6.513 6.15 7.734 6.56 20.354-.82 28.088zm29.519-35.416c-4.1 2.85-8.2 5.292-13.119 6.106-2.87.408-5.33 0-7.79-.814l-2.46-3.663c5.74-6.107 9.84-13.841 13.12-21.576 3.689-8.955 5.739-18.318 6.559-27.274 1.64.407 3.69.407 4.92.814 2.46.407 4.1.407 5.74 2.036 2.46 2.442 4.1 5.292 5.33 8.141 2.459 6.513 2.049 13.434 3.279 20.354.41 1.628.82 2.85 1.23 4.071-1.23.407-2.869.814-4.099 1.628-4.51 2.443-8.2 6.921-12.71 10.177z" fill="#fff"/></svg>