<svg width="230" height="230" fill="none" xmlns="http://www.w3.org/2000/svg"><path d="M130.761 98.294c-3.502.777-7.005 3.497-8.951 6.605-1.945 3.496-1.945 7.381-1.945 10.878 0 2.331.389 8.547-2.335 9.324-1.168.389-2.725-.388-4.281-.777-1.168-1.942-2.724-3.885-4.67-5.439-1.168-.777-1.946-1.165-3.114-1.942.389 0 .779-.389 1.168-.389 3.113-1.554 5.837-4.274 7.005-7.77 2.335-6.605-2.335-13.987-7.784-17.095-5.448-3.496-12.453-3.108-18.29 0-5.06 2.72-8.562 8.547-5.838 14.375 1.167 2.331 4.67 1.166 4.67-1.165 0-3.885 1.168-6.217 4.67-7.77 3.892-1.555 7.783-1.555 11.286 1.165 3.502 2.331 5.448 6.605 3.502 10.49-1.167 1.942-2.335 2.719-4.28 3.496-1.946.389-3.892.777-5.838 2.331-1.946 1.166-1.946 4.663.778 5.051 3.114.777 6.227.777 8.951 2.72.779.388 1.557 1.165 1.946 1.942 0 .389 0 .777.389 1.166.39.777 1.168 1.554 1.557 2.331.389 1.165.778 1.943.778 3.108 0 2.72-.778 5.828-3.113 7.77-1.946 1.554-4.281 1.943-6.616 2.331-3.892.777-9.73.389-13.232-1.942-1.556-1.166-2.724-3.108-3.891-4.662-.39-.777-.779-1.554-.779-2.72v-1.165c1.557-1.166 2.335-3.109 1.168-5.051-.779-1.554-3.503-2.331-5.06-1.166-5.448 3.885-3.891 10.102-.389 14.764 3.114 4.662 7.005 6.993 12.843 8.159 5.448.777 11.675.388 16.734-2.331 4.67-2.72 7.395-7.771 7.395-13.21 2.335.389 4.28.389 6.615-1.165 6.227-4.663 3.503-12.821 4.281-19.038.779-5.439 7.395-8.158 12.065-5.439 4.281 2.331 7.394 7.382 7.783 12.044.389 3.108-.389 6.216-2.724 8.159-2.724 2.331-6.227 3.108-9.729 3.108-2.335-.389-4.67 2.331-4.67 4.662 0 2.72 1.945 4.274 4.67 4.662 8.561.389 16.345-5.827 18.68-13.986 1.946-6.605-.779-13.987-5.059-19.037-3.503-6.216-10.119-8.936-16.346-7.382zm-23.739-11.267c3.113 1.943 7.005 2.72 10.508 2.331 3.502-.388 6.615-1.166 9.729-2.72 3.113-1.554 7.005-5.05 5.837-8.547-.778-2.72-4.28-3.885-6.226-1.554-.39.389-.779.777-1.168 1.554v.389s-.389.388 0 0c0 0-.778.777 0 0-.389 0-.389.388-.778.388-.389.389-1.168.389-1.557.777h-.389c-.389 0-.389.389-.778.389-.39 0-1.168.388-1.557.388-.778 0-1.168.389-1.946.389h-4.67c-.389 0-.778 0-1.167-.389 0 0-.39-.388-.779-.388s-.389-.389-.778-.389-.389-.388-.779-.388h-.389l-1.556-1.554c-1.168-1.166-1.557-2.72-3.114-3.497-1.946-1.166-4.281.389-4.281 2.331 0 1.943 1.168 4.274 2.335 5.828.39 1.942 1.946 3.496 3.503 4.662z" fill="#fff"/><path d="M112.47 77.314c0 .389 0 .777.39 1.166 0 .388.389.777.778.777.389.388.778.777 1.557.777h1.167c.778 0 1.946 0 2.724-.389.779-.388 1.557-.777 2.335-1.554.779-.777 1.168-1.554 1.168-2.331.389-.777 0-1.943 0-3.108v.388c0-.777-.389-1.942-.778-2.72-.39-.776-1.168-1.553-1.946-1.942-1.946-1.165-4.67-.388-6.616.777-1.168.777-1.946 1.554-2.335 3.108-.389 1.166 0 2.331.389 3.108 0 1.166.778 1.555 1.167 1.943zm5.449-5.05c0-.39 0 0 0 0zm0-.39c-.389 0 0 0 0 0zm-2.724.39s.389 0 .389-.39c.389 0 .389 0 .778-.388h1.168l.389.389v1.165c0 .389 0 .777-.389 1.166 0 0 0-.389.389-.389 0 .389 0 .389-.389.778 0 .388-.39.388-.39.776l-.389.389h-2.335s-.389 0-.389-.389l-.389-.388s0-.389-.389-.389v-.777l.389-.388c1.557-.777 1.557-.777 1.557-1.166z" fill="#fff"/><path d="M229.611 107.618c-1.557-1.942-3.503-1.554-5.838-2.331-1.946-.777-3.502-1.942-5.059-3.108-3.892-2.72-7.394-6.216-11.286-9.324-1.167-1.166-2.724-1.943-3.892-3.108 0-2.332 0-4.663.39-6.605.389-1.554.389-3.108 1.945-4.274 1.168-1.165 2.725-1.942 3.892-3.108.389 0 .389-.388.778-.388 2.725-1.943-.389-5.828-3.113-5.44-5.837 1.166-10.118-3.108-14.788-6.216l-.39-.388c.39-1.554.39-2.72.39-4.274.389-4.662-.779-8.547-1.168-13.21-.389-2.719-.778-6.216 0-8.935.778-.389 1.946-1.166 2.724-1.943.779-.777.779-1.942.779-2.72-.779-3.108-3.892-1.942-5.838-.776-2.724 1.165-5.838 2.33-8.951 2.33-6.227.39-12.064-1.165-18.291-1.165h-.778c-2.724-4.274-5.838-9.324-4.281-13.21l1.167-1.165c1.946-1.554 0-4.662-2.335-4.274-1.945.389-3.891 1.943-5.448 3.109-1.946 1.165-4.281 2.33-6.616 2.72-1.946.388-3.892.776-6.227.776-.778-1.165-1.556-1.942-2.335-3.108-3.113-3.497-7.394-5.44-11.286-8.159-1.946-1.165-3.891-2.33-5.448-3.885-1.557-1.554-2.724-3.108-3.892-5.05-.778-1.166-2.724-.389-2.335.776v.778c-.389 1.165-2.724 3.496-3.113 4.273-1.168 1.943-3.114 3.497-4.67 5.05-3.503 3.109-7.784 5.829-11.286 9.325-.778.777-1.946 1.943-2.335 3.108-1.946 0-3.892-.388-5.838-.777-2.335-.777-4.28-2.72-6.227-3.885-.778-.388-1.556-1.165-2.334-1.165v-.389c-.39-1.943-2.725-1.554-3.503 0-1.946 4.662 0 9.324-2.724 13.598v.389c-3.892-.389-7.784-.389-11.286 0-3.892.388-7.784 1.165-11.286 1.554-3.892.388-8.562.777-12.454 0-.778 0-1.556.388-1.167 1.165 1.946 5.828.778 11.656.389 17.483-.39 4.662-.778 9.325 0 13.987-2.335 1.554-4.28 3.108-6.616 4.662-1.167.777-2.335 1.165-3.502 1.165h-1.557s-1.557-.777-1.946-.777c-.39-.388-.39 0-.778 0-1.168-.388-1.946 1.166-.779 1.943l1.168 1.165c.389.389.389.778.778.778 1.168 1.554 1.946 3.496 2.335 5.439 1.168 3.885 1.168 6.993 1.946 10.878-1.167.777-1.946 1.554-3.113 2.72-3.503 3.496-5.838 7.77-9.34 11.267-1.557 1.554-3.114 3.496-5.06 4.273-2.335 1.166-5.059 1.554-7.005 3.108l-.389.389c0 .777 0 1.554.778 1.942.39.389.779.389 1.557.389 1.168 1.165 2.724 1.943 3.892 2.72 2.335 1.554 4.28 3.108 6.227 4.662 3.891 3.885 7.394 8.547 11.286 12.432.389.389.778.777 1.556 1.166 0 2.331-.389 4.662-.778 6.604-.39 1.943-.778 3.497-1.946 5.051-1.167 2.331-2.335 3.885-3.892 3.885-1.945 0-1.945 3.108 0 3.108h.39c2.724.389 5.059 1.554 7.394 2.72 3.113 1.942 6.227 3.497 9.73 5.051-.39 4.662.388 9.712.777 14.375.39 5.439 0 10.878-1.556 16.317 0 .777.389 1.166.778 1.554v.777c0 .389.778.777 1.168.389 0 0 1.945-.777 2.335-.777 1.167-.389 2.335-.389 3.113-.777 3.113 0 5.837.388 8.95.777 4.67.777 9.341 1.942 14.011.777.778 0 1.557-.389 1.946-.389 1.557 2.331 3.113 4.662 4.28 6.993.78 1.555 1.168 3.497 1.168 5.051 0 1.943-1.167 3.497-1.167 5.439 0 .777 1.167 1.166 1.946 1.166 1.167 0 1.946-.777 2.335-1.943.389 0 .778-.388.778-.777 2.335-3.496 6.227-3.885 10.118-4.273 1.946-.389 3.892-.389 6.227-.777 3.113 3.108 7.394 5.827 10.508 9.324 3.502 3.885 5.059 8.159 6.616 13.209.778 2.331 4.67 1.943 4.67-.777-.389-5.439 4.67-9.324 8.951-12.044 4.281-3.108 9.34-5.439 12.842-10.101.779-1.165 1.557-1.942 1.946-3.108h1.557c5.059.389 9.729 1.943 14.01 5.439 2.335 1.943 5.448-.777 3.503-3.496-2.725-3.497.778-7.382 3.113-10.102.389-.388.778-.777 1.167-1.554 3.114 0 6.227 0 9.341-.388 3.502-.389 6.615-1.166 10.118-.777 2.724.388 5.059 1.165 7.394 1.942.779 1.166 1.557 1.943 2.724 1.943 1.557.388 3.114-.389 3.503-1.943.778-1.942-.778-4.273-.778-6.216 0-2.331.389-5.051.778-7.382.778-5.439 2.335-10.878 1.946-16.317 0-2.331-.779-4.663-1.168-6.605 3.503-1.943 7.005-3.497 11.675-3.497 2.335 0 3.892-3.108 1.946-5.05-3.502-3.108-4.67-6.217-4.67-10.49v-4.274l1.557-1.554c5.059-6.216 9.729-17.872 19.069-17.095 1.946 0 3.114-1.554 2.725-3.108.389-.388.389-.388.389-.777v-.388c.778-1.166 1.167-2.331.389-3.497zm-68.105 78.091c-.389.389-.389.777-.778 1.166-3.892-.389-7.395-1.554-10.508-3.497-2.335-1.165-3.892-2.719-5.059-4.273 0-.777-.389-1.166-.389-1.943.778-.388 1.945-.777 2.724-1.165 5.448-2.72 10.118-6.605 14.788-10.102 0 0 .389 0 .389-.388 0 .388.39.777.39 1.165 1.167 1.943 1.945 4.274 2.335 6.216 1.167 4.663-.779 9.325-3.892 12.821zm-22.572-3.496c0 3.108-.389 6.216-1.167 8.936-.39 1.554-1.168 3.496-1.557 5.05-.389 0-1.168 0-1.557-.388-4.281-.777-8.172-2.331-11.286-5.051-1.167-1.165-1.946-1.942-2.724-3.497.778-1.554 1.167-3.108 1.167-5.05 5.838-.389 11.676-1.554 17.124-3.108-.389 1.165 0 2.331 0 3.108zm-42.03 17.094c-1.557-1.942-3.114-4.273-4.281-6.604-1.946-4.663-2.335-9.713-.779-14.375 7.395 2.719 14.789 4.273 22.572 4.662-.778 3.885-2.724 7.382-5.837 10.101-3.114 3.108-7.395 5.051-11.675 6.216zm-24.518-12.044c-2.335-3.885-5.449-7.77-6.616-12.043-1.557-4.274-.778-6.994 2.724-10.49.39-.389.39-.389.39-.777 4.28 4.273 8.561 8.158 14.788 10.878.778.389 1.556.777 2.335.777h-.39c-.389.389-.778 1.166-.778 1.554v1.166c-.389 1.165-1.556 2.331-2.724 3.496-3.113 2.72-6.616 4.274-9.73 5.439zm98.071-38.462c-3.503 1.165-6.227 3.885-8.951 6.604-3.503 3.497-7.394 6.217-11.675 8.936-8.951 6.216-19.07 9.713-30.356 10.102-10.507.388-20.236-1.943-29.966-5.44-11.286-3.885-19.458-12.044-28.41-19.425-1.167-.777-3.112.388-2.334 1.554 1.556 2.331 3.502 4.662 5.059 6.993-1.557 0-2.724.388-3.502 2.331 0 .389-.39.777-.779 1.554-.389.389 0 0 0 .389l-.389.388-.39.389h-3.113c-.778 0-1.556-.389-2.335-.389-1.556-.388-3.502-1.165-5.059-1.554-1.556-.777-3.502-1.165-5.059-1.943.39-1.942.778-4.273 1.557-6.216 1.167-4.273 3.502-7.381 6.615-10.101 1.168.777 1.946 1.554 3.503 1.942.778.389 1.946-.388 1.557-1.165-1.557-5.051-4.281-9.713-5.449-14.764-1.167-5.439-1.167-11.266-.778-16.706.778-11.267 3.503-22.533 9.73-31.858 7.004-10.49 17.512-17.871 28.798-23.31 5.838-2.72 12.453-5.44 19.069-6.217 7.395-1.165 14.789.389 22.183 1.554.778.777 1.946.777 3.113.389.39 0 .779-.389.779-.389.778-.388 1.167-.777 1.556-1.554 1.946 1.166 4.671.777 5.838-1.942 2.724-2.72 5.059-5.44 8.562-7.382 2.724-1.554 5.837-2.331 8.951-2.72 1.556 2.72 3.113 5.44 3.891 8.16.39 1.942.39 3.884-.389 5.827-.778 1.942-2.724 3.496-3.891 5.439-2.335-1.554-4.67-2.72-7.006-2.72-1.556 0-1.945 1.554-1.556 2.72 1.167 2.72 3.892 4.662 6.227 6.605a85.44 85.44 0 017.783 8.935c4.67 5.828 8.562 12.433 11.286 19.426 1.946 5.44 3.502 10.49 3.892 15.929-.39.777-.39 1.554-.39 2.331-.778 1.554-.778 3.108.39 4.274 0 6.216-1.168 12.432-3.892 18.26-.778 2.331-3.503 5.051-3.503 7.77 0 2.331 1.946 3.886 4.281 3.108 1.168-.388 2.335-1.165 3.114-1.942.778 1.165 1.556 1.942 2.335 3.108 2.335 2.331 4.281 4.274 5.448 6.993.389.777.389 1.166.778 1.943 0 0-.389 0-.389.388-3.502 1.943-7.394 3.885-11.675 4.274-1.946 0-3.892 0-5.837-.389-.39 0-1.168 0-1.557-.388 1.167-.777 1.946-1.554 3.113-1.943 6.227-1.942 4.281-10.101-.778-8.158zM56.041 163.176c0 .388.389.388 0 0zm8.95-107.619c-.778-4.273.779-8.935 3.503-12.82 1.168-1.555 2.335-3.109 3.503-4.274 6.226 1.554 13.231 4.273 14.399 10.878 0 .389.39.389.39.777-6.617 2.72-12.844 6.605-18.292 10.879-.778-1.166-1.946-2.72-3.113-3.497 0-.777-.39-1.554-.39-1.943zM99.629 28.75c3.891.389 7.394 1.942 10.118 5.05 1.168 1.166 2.335 3.109 3.114 4.663.778 1.554.778 3.108 1.556 4.662-1.946 0-3.502 0-5.448.389-5.449.776-10.508 2.33-15.567 3.885 0-1.166-.39-2.331-.778-3.497v-1.943c0-2.72 0-5.439.778-8.158.39-1.943 1.168-3.497 1.946-5.051h4.28zm21.793 12.044c.779-1.166 1.168-2.72 1.557-4.274.389-1.554.778-2.72 1.557-3.885.778-1.165.389-.777 1.167-1.165.779-.389 1.557-1.166 2.335-1.554 1.557-.777 3.503-1.166 5.449-1.555 1.556 5.44 1.556 11.656.389 17.095-.389 0-.389 0-.779-.389-3.891-.776-7.783-1.553-11.675-1.942.389-.777.389-1.554 0-2.331zM58.376 60.22c.389 2.33 1.556 5.439 3.113 6.993-2.724 2.72-5.06 5.439-7.005 8.547-1.168 1.554-2.335 3.497-3.114 5.44-2.334-1.943-5.059-3.109-6.615-5.051-2.335-2.72-3.892-5.44-5.06-8.936 1.557-1.166 3.114-2.331 4.67-3.108 3.114-1.943 7.006-3.885 10.119-4.274h2.335c.778.389 1.167.389 1.557.389zM47.479 90.135c-1.946 5.828-3.114 12.044-3.892 18.26-.778 0-1.167.389-1.946.389h-1.946c-.389 0-.778 0-1.167-.389h-.39c-.388 0-.778-.388-.778-.388l-.389-.389-.778-.777v-.388l-1.168-2.331-.389-.777c0-.389-.389-.777-.389-1.166-.39-.777-.39-1.554-.778-2.331L32.3 94.02c1.168-.388 1.946-1.165 3.113-1.554 2.336-.777 5.06-1.554 7.784-1.942.39-.777 2.724-.777 4.28-.389zm-7.394 27.585c1.167-.389 2.335-1.166 3.502-1.555 0 6.605.778 14.764 3.892 20.98-.39.389-.779.389-1.168.777-3.502-.388-7.005-.388-10.507-1.165-1.557-.389-3.114-1.166-4.281-1.943.389-4.274.778-8.936 3.113-12.432 1.557-2.331 3.114-3.497 5.449-4.662zm140.49-43.903c-.778.778-1.167 1.943-1.946 2.72-.389.389-.778.777-1.167 1.554-2.335-3.496-4.67-6.605-7.394-9.713-1.168-1.165-2.335-2.72-3.892-3.885h.389c1.946-.388 3.503-.388 5.449-.777 3.502 0 7.783-.388 11.285.777.39.389 1.168.389 1.557.777-.389.777-.389 1.554-.778 2.331-1.168 2.331-2.335 4.274-3.503 6.216zm2.724 63.328c1.168-2.719 1.557-5.827 1.946-7.77a71.997 71.997 0 002.335-13.21c4.281 2.332 7.395 6.217 9.34 10.49.779 1.554 1.168 3.497 1.557 5.44-1.167 1.165-2.335 1.942-3.892 2.719-2.724 1.554-6.226 1.943-9.34 2.331h-1.946zm4.671-29.527c-.39-6.216-2.335-12.432-4.671-18.648 0-.389-.389-.778-.389-1.166 1.168 0 2.335.388 3.503.388 2.724.389 5.059 1.166 7.783 2.72 1.557.777 2.724 1.554 3.892 2.331v1.166c-.778 3.885-2.724 8.159-5.838 10.878-1.556 1.166-3.113 1.943-4.28 2.331zm7.394-34.189c1.556 1.166 3.113 1.943 5.059 2.72-.389.777-.778 1.165-1.167 2.33-1.168 2.72-1.168 5.44-1.168 8.548-1.168-.777-2.335-1.166-3.503-1.554-3.891-1.554-7.783-2.331-11.675-1.943.779-1.165 1.557-2.33 2.335-3.108 1.557-1.942 2.725-3.885 3.503-6.216.778-1.554 1.167-2.72 1.946-4.274l4.67 3.497zm-8.173-34.578c-1.167 4.663 0 10.49 0 15.152 0 1.943-.389 3.886-.778 5.828-1.946-.777-4.281-1.554-6.616-1.554-4.281-.389-8.951 0-12.843 1.166 1.946-2.72 2.725-6.217 3.114-8.936 0-4.274-1.946-8.16-4.281-11.656 7.005.389 14.399 1.943 21.404 0zm-39.695-13.21c1.946-.776 3.502-1.942 5.059-3.107.389 3.496 1.946 7.77 3.503 10.49-3.114.777-5.838 1.554-8.562 3.496-1.557 1.166-3.503 2.331-5.059 3.885 0-4.662-.39-8.935-1.557-13.21 1.946-.388 4.281-.776 6.616-1.553zm-36.193-12.82c1.167-1.554 2.724-3.108 3.502-4.662.779 1.165 1.557 1.942 2.725 2.72 3.113 3.107 7.005 5.438 10.118 8.547l2.335 2.33h-.778c-4.281 1.166-8.562 3.109-10.897 6.994-.389 1.166-.778 1.942-1.557 3.108 0-.777-.778-1.554-1.556-1.942-3.114-3.497-7.784-5.44-12.454-6.217-1.167 0-2.724-.388-3.892-.388l1.168-1.166c3.892-2.72 8.173-5.828 11.286-9.324zm-33.858 9.713c1.557 1.554 3.113 3.496 5.448 4.273 1.946.777 3.892 1.166 5.838 1.554-.778 1.943-1.168 4.274-1.557 6.605 0 .777 0 1.554-.389 2.331A31.65 31.65 0 0075.5 32.635c.39-.777.779-1.165.779-1.942.778-2.72.778-5.828.389-8.548.389 0 .778 0 .778.389zM38.528 48.176c-.39-4.274-.778-8.548-2.335-12.433 2.335.777 4.67 1.943 7.394 1.943 3.503.388 7.005.388 10.508 0 3.502-.389 7.005-.777 10.507-.777-1.946 1.942-3.502 4.273-4.67 6.605-1.556 3.108-2.335 6.604-2.335 10.49-3.502-.39-7.005.776-10.507 2.33-3.114 1.554-5.838 3.497-8.173 5.44-.39-4.274 0-8.936-.39-13.598zM27.242 77.314c-.39-.777-.778-1.165-1.168-1.942 2.725-.777 5.449-2.332 8.173-3.886.39 0 .39-.388.778-.388 1.168 3.497 3.114 6.605 5.449 8.936 1.167 1.165 2.335 1.942 3.502 3.108-4.67.388-9.34 1.942-13.232 3.885-.778-3.108-1.945-6.605-3.502-9.713zm-12.454 41.183c-1.945-1.554-3.891-2.72-6.615-3.497 2.335-.777 4.28-2.331 5.837-3.497 3.503-3.108 6.227-6.993 9.34-10.49.779-1.165 1.557-1.942 2.724-2.72.779 5.44 2.335 10.879 6.616 14.376.39.388 1.168.777 1.557 1.165-1.167.777-2.335 1.554-3.113 2.331-3.503 3.886-4.281 8.936-5.06 13.987-3.891-4.274-7.394-8.547-11.286-11.655zm10.897 33.8c1.168-1.165 1.946-2.331 2.725-3.496 1.167-2.331 1.945-5.051 2.724-8.159 3.113 1.554 6.616 2.719 10.118 3.108-1.946 3.497-3.502 7.77-3.892 12.044-3.113-1.554-6.226-2.72-9.729-3.497-.778.389-1.557 0-1.946 0zm34.637 37.686c-4.67-.388-8.951-1.165-13.622-1.165-1.556 0-3.502.388-5.059.777 3.503-6.605 1.557-16.707 1.557-23.7 4.67 2.331 9.73 4.274 14.4 4.274-.39 3.885.778 7.77 2.724 11.655 1.556 2.72 3.113 5.051 4.67 7.771-1.557.388-3.114.777-4.67.388zm22.182 12.821c-1.167.389-1.946.777-3.113 1.554 0-.777 0-1.943-.39-2.72-.778-3.108-1.945-5.827-3.502-8.547 2.335-1.165 4.67-1.942 7.005-3.496.779-.389 1.946-1.166 2.724-1.943.39 4.662 1.946 9.324 4.67 13.209-2.724.389-5.059.777-7.394 1.943zm48.257 1.943c-4.67 4.273-12.842 8.547-16.734 14.375-2.335-5.828-7.005-10.49-11.675-14.375 5.838-2.332 11.286-6.217 15.178-11.656 2.335 3.108 5.837 5.439 9.729 6.993 1.946.777 4.281 1.554 6.227 1.943-1.168.777-1.946 1.554-2.725 2.72zm23.351-8.936c-.779 1.554-1.168 3.108-1.168 4.662-3.113-1.943-7.005-2.331-10.897-3.108.779-2.331 1.557-5.051 2.335-7.77.39-1.166.39-2.332.779-3.886 3.113 3.109 7.394 5.44 10.897 6.605h.389c-1.168 1.166-1.946 2.331-2.335 3.497zm36.971-27.196c-.778 5.05-1.946 10.101-2.335 15.152v2.719c-3.503-1.165-7.005-1.554-10.119-1.165-3.113.388-6.226.777-9.729 1.165.389-.388.389-.777.779-1.165 2.724-4.662 3.502-9.713 2.335-15.152-.39-2.331-1.557-4.662-2.725-6.605 0-.388-.389-.777-.389-1.165.389 0 .389 0 .779.388 1.945.777 4.28 1.166 6.226 1.166 4.281.388 8.562-.777 12.454-2.331.778-.389 1.946-.777 2.724-1.166v8.159zm.389-21.757c-1.946-2.331-3.892-3.885-6.616-5.439 3.114.388 5.838 0 8.951-.777 1.946-.389 3.892-1.554 5.838-2.72.389 1.943.778 3.497 1.167 5.051.389 1.942.779 3.885 1.946 5.439-3.113.777-5.448 1.943-8.173 3.108-1.167-1.165-1.945-3.108-3.113-4.662zm13.621-21.757c-.389.389-.389.777-.778 1.166 0-.389 0-.389-.389-.777-.39-1.554-1.168-2.72-1.946-3.885 0 0 0-.389-.389-.389-1.946-3.496-4.671-6.993-8.173-9.324 3.502-2.72 6.616-6.216 8.173-10.879.389-1.165.778-2.33.778-3.496.778.388 1.167 1.165 1.946 1.554 3.891 3.497 8.561 8.547 13.621 11.267-5.449 3.108-9.34 9.324-12.843 14.763z" fill="#fff"/></svg>