<svg width="260" height="198" fill="none" xmlns="http://www.w3.org/2000/svg"><path d="M104.693 64.902c-1.772-1.234-3.976.826-3.402 2.766 1.916 6.467 10.274 8.564 16.155 8.23 5.784-.658 11.641-3.447 15.21-8.021 1.785-2.287 2.959-5.449 2.517-8.132-.06-1.389-.958-3.233-2.539-3.82-1.485-.264-2.491 1.089-2.85 2.25-.36 1.162-.073 2.132-.528 2.97-.359 1.162-1.234 1.773-2.336 2.802-1.101 1.03-1.652 1.545-2.527 2.156-.551.515-1.198.706-1.521.802l-.647.191-.97.288c-2.814 1.185-5.82 1.723-8.467 1.1-2.874-.204-5.161-1.989-8.095-3.582z" fill="url(#paint0_linear)"/><path d="M112.156 55.658l-.456.838c-.719 2.323.047 4.91 2.143 6.048 1.581.587 3.293.432 5.006.277 1.293-.383 2.491-1.09 3.27-2.024 1.557-1.868 1.857-4.419.54-6.49-.707-1.198-1.964-1.881-3.222-2.564-.419-.228-1.161-.36-1.904-.491a4.68 4.68 0 00-2.91.861c-.551.515-1.102 1.03-.815 2-.323.096-.551.515-.874.61-.228.42-.551.516-.778.935.323-.096.323-.096 0 0zm3.089 3.306c.323-.096.323-.096 0 0zm2.886-3.317s.324-.096.42.227c0 0 .095.324.419.228l.095.323.192.647.096.323s.095.324-.228.42l-.227.419s-.324.096-.228.419l-.323.096-.324.095-.647.192-.323.096-.647.191c-.323.096-.323.096-.742-.132l-.324.096-.323.096-.419-.228-.096-.323-.191-.647c-.096-.323.227-.419.132-.742l.455-.839 1.617-.478c1.197-.707 1.293-.383 1.616-.48z" fill="url(#paint1_linear)"/><path d="M144.435 98.153c2.445-5.999 1.727-13.173-4.104-17.425-6.347-4.803-13.976-3.248-20.192.703-5.342 3.34-10.851 8.49-8.194 15.088 1.185 2.815 5.389 1.57 4.527-1.34-.921-4.3 3.546-7.03 6.912-8.73 4.24-2.31 9.318-4.165 13.473-.823 3.221 2.563 3.172 7.15 2.513 10.862-.491 1.904-1.629 4-2.959 5.449-1.653 1.544-3.27 2.023-5.629 2.37-1.94.574-2.049 3.772.179 4.167 2.227.396 4.168-.178 6.012-1.076 4.91-.047 9.52 2.456 11.603 7.115 2.371 5.629.082 13.341-4.649 17.556-4.18 3.7-9.965 4.358-15.03 2.692-5.066-1.665-10.993-6.241-7.807-12.109 1.821-3.353-3.304-6.407-5.448-2.959-3.833 6.059-1.308 13.401 3.877 17.845 5.089 4.121 12.61 5.762 19.173 4.171 5.916-1.4 10.875-6.034 13.51-11.387 2.768-6.095 4.027-14.909-1.122-20.419-2.478-2.432-5.7-4.995-9.089-5.75-.323.096-.742-.132-.742-.132a31.198 31.198 0 003.186-5.868z" fill="url(#paint2_linear)"/><path d="M240.355 66.936c-1.221-1.748-3.125-2.24-4.706-2.827-2.419-1.042-4.933-2.408-7.448-3.773-5.449-2.96-11.089-6.565-15.854-10.781-8.921-7.559-16.968-15.727-27.673-20.998-8.287-4.23-17.196-5.812-26.31-4.52-3.425.311-21.042 3.77-15.092 10.8.419.227.515.55 1.258.683-.551.515-.264 1.485.251 2.036 2.059 2.204 5.221 3.378 7.831 5.067 2.934 1.593 6.059 3.833 9.089 5.75 5.927 4.576 11.304 9.666 15.901 15.69 8.681 11.499 13.253 24.565 12.006 39.355-.3 2.551-3.044 11.102 1.998 10.312 5.689-.981 4.756-11.257 4.673-15.1-.298-6.947-.824-13.474-2.835-20.264-2.011-6.791-5.638-13.103-10.14-18.804-5.017-6.252-10.813-11.57-17.483-16.278-3.125-2.24-6.897-4.289-10.25-6.11-2.419-1.042-5.353-2.635-8.227-2.84 1.977-1.64 3.402-2.765 6.084-3.208 3.234-.957 6.659-1.268 10.18-1.256 9.725-.417 18.849 4.267 26.453 9.753 8.538 6.265 15.519 14.398 24.607 20.148 4.706 2.827 9.736 5.558 14.897 7.547 1.162.36 2.838 1.27 4.323 1.533l-2.755 2.575c-3.438 3.831-5.522 8.67-7.283 13.412-3.619 9.16-5.752 18.585-7.789 28.333-1.87 7.94-4.578 15.424-11.058 20.86-5.282 4.73-15.929 10.345-23.186 7.218 1.557-1.868 2.791-3.64 3.929-5.736 2.24-3.125 3.486-8.418 6.337-10.669 3.402-2.766-.13-8.755-3.855-5.893-2.851 2.251-4.348 5.508-6.169 8.861-2.276 4.191-5.295 8.251-8.086 11.891-6.361 8.214-14.781 14.225-24.709 17.516-9.605 3.196-19.425 3.29-29.437 2.738-11.078-.589-20.586-6.566-30.453-11.382-1.257-.683-2.491 1.089-1.557 1.868 6.957 5.677 13.495 11.128 21.949 13.548-.874.611-2.072 1.317-3.784 1.472-3.234.958-6.659 1.269-10.18 1.256-9.724.418-18.85-4.266-26.453-9.752-8.538-6.265-15.518-14.398-24.607-20.148-4.706-2.827-9.735-5.558-14.897-7.547-1.161-.36-2.838-1.27-4.323-1.534l2.755-2.574c3.438-3.832 5.522-8.67 7.284-13.412 3.618-9.161 5.751-18.586 7.789-28.334 1.87-7.94 4.577-15.424 11.057-20.86 5.054-4.31 14.732-9.638 22.025-7.577-2.66 2.898-4.9 6.023-7.044 9.472-10.721 17.243-11.443 38.56-5.051 57.771 2.813 8.311 8.032 21.186 18.104 23.128.742.132 1.52-.802 1.006-1.353-2.958-4.048-6.466-7.582-8.872-12.145-2.922-5.114-4.645-10.935-5.95-16.528-2.417-10.539-3.41-22.203-.497-32.562 3.271-11.52 10.123-21.639 18.939-29.877 4.635-4.538 10.013-8.944 16.193-11.83 6.408-3.303 13.581-4.02 20.755-4.738.934.778 2.551.3 3.329-.634l.228-.42c1.557-1.867.731-5.844-2.275-5.305-5.916 1.4-12.443 1.926-18.263 3.65-5.821 1.723-10.84 4.968-15.439 8.44-3.725 2.861-7.03 5.95-10.336 9.04-7.868-4.001-17.282-.159-24.468 4.08-7.833 4.43-12.768 11.518-15.512 20.069-3.427 9.807-4.434 20.657-7.861 30.465-1.797 5.808-4.146 12.131-7.943 17.124-.779.934-5.701 4.502-5.127 6.442l-.323.096c-.874.611-.683 1.257-.587 1.581 1.221 1.748 3.125 2.24 4.706 2.827 2.419 1.042 4.934 2.408 7.448 3.773 5.449 2.959 11.089 6.565 15.855 10.781 8.92 7.559 16.967 15.727 27.672 20.999 8.287 4.228 17.197 5.811 26.311 4.519 3.006-.539 15.03-2.692 16.144-7.243 10.203 1.199 20.443 1.333 30.239-1.216 10.121-2.645 20.026-8.392 27.224-16.151l2.336-2.802c8.059 4.648 18.119.613 25.306-3.625 7.833-4.43 12.768-11.518 15.512-20.069 3.426-9.807 4.434-20.657 7.861-30.465 1.797-5.808 4.146-12.13 7.943-17.124.778-.934 5.701-4.502 5.127-6.442l.323-.096c1.293-.383 1.425-1.126.91-1.677z" fill="url(#paint3_linear)"/><defs><linearGradient id="paint0_linear" x1="110.326" y1="32.635" x2="149.497" y2="164.918" gradientUnits="userSpaceOnUse"><stop stop-color="#fff"/><stop offset="1" stop-color="#fff" stop-opacity="0"/></linearGradient><linearGradient id="paint1_linear" x1="110.326" y1="32.635" x2="149.497" y2="164.918" gradientUnits="userSpaceOnUse"><stop stop-color="#fff"/><stop offset="1" stop-color="#fff" stop-opacity="0"/></linearGradient><linearGradient id="paint2_linear" x1="110.326" y1="32.635" x2="149.497" y2="164.918" gradientUnits="userSpaceOnUse"><stop stop-color="#fff"/><stop offset="1" stop-color="#fff" stop-opacity="0"/></linearGradient><linearGradient id="paint3_linear" x1="110.326" y1="32.635" x2="149.497" y2="164.918" gradientUnits="userSpaceOnUse"><stop stop-color="#fff"/><stop offset="1" stop-color="#fff" stop-opacity="0"/></linearGradient></defs></svg>