<svg width="212" height="230" fill="none" xmlns="http://www.w3.org/2000/svg"><path d="M138.518 62.57v-.863c-.432.432 0 .863 0 .863zm1.726 3.452c.863.863 2.158 1.295 3.021 1.295.431 0 1.294 0 1.726-.431 1.294 0 2.157 0 3.452.431h1.294c.432 0 .863-.431.863-.431.863-.432 1.295-1.295 1.726-2.158 0-.432.432-.863.432-.863V62.57c0-.863-.432-1.726-1.295-2.157-.863-.863-1.726-1.295-2.589-1.726h-.431c-.432-.432-1.295-.863-1.726-1.295-.432-.431-1.295-.431-1.726-.863-.863 0-1.726-.432-2.158-.432h.863-1.726c-.863 0-1.726.432-2.158.864-.431.863-.863 1.294-.863 2.157v3.02c-.431 1.727 0 3.021 1.295 3.884zm-59.118 88.462c3.452 2.158 9.062 5.178 12.945 2.158.432-.432.863-1.295 0-1.726-2.157-2.59-5.61-3.453-8.63-5.61-2.59-2.158-5.178-4.747-7.336-7.768-3.884-5.609-6.473-12.945-6.041-19.849.863-12.083 14.24-16.83 24.165-13.378 6.041 1.726 10.356 6.042 12.082 12.514 1.295 4.747 7.768 3.453 8.199-.863 4.316-4.315 9.062-8.198 15.535-9.061 5.61-.864 11.651 1.294 15.535 5.178 8.63 9.062 8.63 23.733 2.589 34.09-1.726 3.02-3.884 5.61-6.473 7.336-3.021 2.157-6.473 2.589-9.493 4.315-.863.431-.432 1.726.431 2.157 6.904 3.021 14.672-3.452 18.987-8.63 4.315-5.61 6.473-13.377 6.904-20.281.432-11.651-5.609-23.734-15.534-28.481.431-.863.431-2.157.431-3.02V86.304c0-.863.432-1.726.863-2.59 0-.862 0-1.725-.431-2.588 6.472-.432 12.945.431 18.987-2.59v-.431c-7.336.863-14.672 1.726-21.576.432-7.336-1.727-14.241-2.59-21.576-3.453-9.062-.863-18.124-.863-27.186-1.294-9.062-.432-19.85-2.158-28.049.863-1.726.431-1.726 2.589 0 3.02 4.315 1.727 9.494 1.295 13.809 1.727 5.178.431 10.356.863 15.103.863l27.186 1.294c5.609.432 11.219 0 16.829-.431-.863 1.726-.863 3.883-1.295 6.04v6.042c0 2.158 0 4.315.432 6.041v4.747c-1.726-.431-3.452-.431-5.61-.431-6.904.431-14.24 3.883-18.987 9.493-6.041-12.082-22.007-17.692-34.953-12.945-7.336 2.589-13.377 8.63-15.535 16.829-2.157 8.63.432 18.124 5.179 25.891 4.746 5.178 8.199 9.062 12.514 11.651z" fill="#fff"/><path d="M230 150.169c-.431-12.514-6.041-27.186-17.692-33.227 3.452-1.295 6.904-4.747 9.062-8.199 4.746-6.904 7.767-15.966 7.335-24.597-.431-12.082-6.041-22.87-9.924-34.09-3.453-11.22-4.316-22.007 1.726-32.364 1.294-2.157-.863-4.746-3.021-3.883-6.904 1.726-12.946 2.157-20.281.431-6.042-1.726-11.651-4.315-17.261-6.904C170.45 3.02 160.525-.864 150.169 0c-13.377.431-28.912 6.904-34.09 18.987-1.726-2.59-4.315-4.747-6.473-6.473-6.904-4.747-15.966-7.767-24.597-7.336-12.082.432-22.87 6.042-34.09 9.925-11.22 3.452-22.007 4.315-32.364-1.726-2.589-1.295-5.178.432-4.746 3.02 1.726 6.905 2.157 12.946.431 20.282-1.726 6.041-4.315 11.651-6.904 17.26C3.02 63.434-.863 73.36 0 83.716c.863 15.966 9.062 34.09 25.891 35.816-12.514 7.767-18.555 22.007-16.398 37.542 1.295 9.925 6.473 18.124 11.22 26.754 2.59 4.316 5.178 8.631 6.041 13.377.432 2.59.432 4.747.863 7.336.432 3.452.863 3.884-1.726 7.336-1.294 1.295 0 3.452 1.726 3.021 20.282-3.452 35.385 15.966 55.666 14.671 14.672-.863 31.933-8.198 35.385-23.733 7.767 13.377 22.439 20.713 38.837 18.124 9.925-1.295 18.124-6.473 26.754-11.22 4.315-2.589 8.63-5.178 13.377-6.041 2.589-.432 4.747-.432 7.336-.863 3.452-.432 3.884-.863 7.336 1.726 1.294 1.295 3.452 0 3.02-1.726-3.883-20.282 15.535-35.385 14.672-55.666zM8.199 75.084c1.726-10.356 7.767-19.85 11.651-29.343 3.452-8.63 4.315-17.692 1.294-26.323 6.473 1.295 12.946 3.453 19.85 3.453 9.925 0 18.987-3.453 28.05-6.473 9.493-3.02 18.555-4.747 28.048-.863 5.61 2.157 9.925 5.178 12.946 9.925-10.788.431-22.008 3.02-31.933 7.767-13.377 6.041-24.165 17.26-33.227 28.912-5.178 6.904-9.925 14.672-12.945 22.87-2.59 6.905-4.747 15.104-2.59 22.439.432 1.295 2.59 1.726 2.59 0 .862-6.041 1.294-11.65 3.452-17.26 2.589-6.905 6.04-12.946 10.356-18.987 7.767-11.22 18.124-21.576 30.207-28.912 11.65-6.904 25.028-9.494 38.405-9.494.863 2.158 3.883 2.158 4.746.432 15.967 1.295 31.501 6.473 44.015 14.24 7.768 4.747 14.672 11.22 19.85 18.124 3.021 3.884 5.179 7.767 7.336 12.083 2.158 4.315 5.178 8.198 6.042 13.377 0 .431.431.431.431 0 .863-3.884 2.158-7.768 2.158-11.651 0-4.316-2.589-9.062-4.747-12.946-4.315-7.767-10.357-14.672-17.261-20.281-13.809-11.22-30.206-18.124-47.899-20.713-2.589-.432-5.609-.863-8.63-.863 4.747-14.24 23.734-19.419 37.974-16.83 10.356 1.726 19.85 7.768 29.343 11.651 8.631 3.453 17.692 4.316 26.323 1.295-1.295 6.473-3.452 12.945-3.452 19.85 0 9.925 3.452 18.987 6.472 28.049 3.021 9.493 4.747 18.555.863 28.048-2.589 6.905-6.472 12.514-13.808 14.672h-.432c0-3.884-.863-7.336-3.02-10.788-.863-.863-2.158-.431-1.726.863 1.294 5.61.431 11.22-.432 16.829-.431 3.021-.863 5.61-1.726 8.631v.431c-2.589 5.61-3.021 12.083-6.041 17.693-3.452 6.904-7.768 12.945-12.946 18.986-11.219 12.083-26.754 20.282-42.72 24.597-32.364 8.63-68.18-6.041-86.736-34.09a92.993 92.993 0 01-10.356-20.713c-1.295-3.884-2.59-7.767-3.452-11.651.863-.431 1.294-.863 2.157-.863 3.452-1.295.863-6.904-2.589-6.041-.431 0-.863.431-1.295.431-.431-1.294-.863-2.589-2.157-3.452-.432-.431-.863-.431-1.295 0 1.295.432.863 1.295.863 1.726C12.083 112.195 5.61 90.619 8.2 75.084zm102.27 129.025c-1.726 14.671-24.165 19.85-35.816 17.692-8.199-1.294-15.535-6.041-23.302-9.062-6.904-2.589-13.377-3.452-20.281-2.157.431-.432.863-1.295 1.294-1.726.863-1.727 2.158-2.158 2.59-3.884 1.294-3.884 0-9.062-1.295-12.514-3.021-9.062-9.062-16.398-13.377-25.028-3.884-8.199-5.179-18.124-2.59-27.186 2.158-6.473 6.473-11.22 11.651-15.103.432 3.02 1.295 6.472 2.158 8.63 2.158 7.767 4.747 15.103 8.63 22.008 8.2 14.671 21.145 26.322 35.817 34.09 11.65 6.041 24.596 9.493 37.542 9.925-1.295.863-2.589 2.157-3.021 4.315zm94.503-5.61c-3.884-1.295-9.062 0-12.514 1.295-9.062 3.02-16.398 9.062-25.028 13.377-8.199 3.883-18.124 5.178-27.186 2.589-8.199-2.589-13.377-8.199-17.261-15.535 22.008-1.294 43.584-10.356 59.118-26.323 6.473-6.472 12.514-14.24 16.83-22.439 3.452-6.904 8.63-17.26 4.315-24.596 0-.432-.432-.432-.432-.432 0-1.294.432-2.157.432-3.452h.431c14.672 1.726 19.85 24.165 17.693 35.816-1.295 8.199-6.042 15.535-9.062 23.302-2.589 6.905-3.452 13.377-2.158 20.282-.431-.432-1.294-.863-1.726-1.295-1.295-.863-1.726-1.726-3.452-2.589z" fill="#fff"/></svg>