<svg width="308" height="403" fill="none" xmlns="http://www.w3.org/2000/svg"><path d="M201.09 204.661c-.299-.002 30.792 2.297 57.258-19.669-1.828 5.074-3.654 9.849-5.481 14.624-5.987.859-32.939 5.767-56.039 16.386-.299-.002 29.289 3.485 55.734-15.49l-6.375 14.32c-5.687.561-31.727 3.381-54.22 12.508-.299-.002 27.784 4.97 53.915-11.613-2.424 4.772-4.847 9.244-7.269 13.716-5.084-.034-30.218 1.297-52.401 8.93-.299-.002 25.983 5.856 51.797-8.037l-8.164 13.411c-4.784-.331-28.409-.786-50.286 5.652-.299-.002 24.482 6.744 49.682-4.759-3.021 4.468-6.039 8.637-9.058 12.806-4.482-.628-26.902-2.571-47.871 2.377 0 0 22.681 7.63 47.269-1.782-3.317 4.167-6.635 8.334-9.951 12.201-4.183-.626-25.097-4.055-45.162-.297 0 0 21.182 8.218 44.859.894a190.873 190.873 0 01-10.844 11.597c-3.583-.921-23.295-5.24-42.454-2.673 0 0 19.383 8.804 42.153 2.971-3.614 3.865-7.526 7.43-11.438 10.995-3.284-.92-21.495-6.126-39.749-4.751 0 0 17.886 9.095 39.149 5.046a205.706 205.706 0 01-12.332 10.391c-2.684-1.215-19.395-7.01-36.746-6.526 0 0 16.389 9.383 36.445 6.823-4.209 3.263-8.418 6.527-12.924 9.489-2.385-1.212-17.597-7.596-33.745-8.002 0 0 14.594 9.372 33.444 8.299l-13.518 8.887c-2.086-1.21-15.499-8.18-30.747-9.178 0 0 13.099 9.361 30.448 9.176-4.805 2.961-9.309 5.624-14.409 7.984-1.49-.908-13.705-8.169-27.75-10.057 0 0 11.605 9.053 27.451 10.055-4.804 2.661-9.904 5.021-15.002 7.082-.894-.604-11.611-8.155-24.757-10.336 0 0 10.111 8.743 24.458 10.334-1.801.886-3.9 1.769-5.699 2.356-.895-.305-14.63-3.986-28.995-2.585 0 0 13.722 5.476 28.696 2.583-2.398.882-4.799 2.063-7.198 2.945.301-.298.601-.296.902-.593 0 0-16.165 1.988-30.265 8.477 0 0 15.855-.493 29.064-7.886 2.399-.882 5.097-1.762 7.497-2.943-1.802 1.185-14.122 9.781-21.97 20.5 0 0 15.309-8.277 22.269-20.498 1.801-.886 3.898-1.47 5.699-2.356-8.452 11.613-12.129 25.053-12.129 25.053 10.539-10.702 12.121-23.856 12.129-25.053 5.098-2.061 10.198-4.421 15.001-7.082-8.463 13.408-11.552 28.348-11.552 28.348 10.848-12.196 11.84-26.551 11.852-28.346a173.35 173.35 0 0014.409-7.984c-8.176 15.206-10.976 31.644-10.976 31.644 11.159-13.989 10.962-29.549 10.976-31.644 4.803-2.661 9.309-5.623 13.817-8.885-7.889 17.003-9.801 34.943-9.801 34.943 11.168-15.485 10.084-32.547 10.1-34.941 4.506-2.962 8.715-6.225 12.924-9.489-7.302 18.802-8.328 38.243-8.328 38.243 11.183-17.579 8.909-35.546 8.629-38.54a205.706 205.706 0 0012.332-10.391c-6.417 20.603-6.555 41.546-6.555 41.546 10.895-19.376 7.432-38.548 6.856-41.843 3.912-3.565 7.823-7.129 11.737-10.993-5.531 22.404-4.481 44.551-4.481 44.551 10.608-21.173 5.658-41.551 4.784-45.148l10.844-11.597c-4.345 23.908-2.108 47.559-1.811 47.86 10.024-23.271 3.584-44.557 2.411-48.155 3.615-3.866 6.933-8.033 9.951-12.202-2.861 25.713.863 50.571.861 50.87 9.44-25.37 1.209-47.266-.558-51.466 3.318-4.167 6.336-8.336 9.357-12.805-1.376 27.219 3.834 53.583 3.834 53.583 8.556-27.47-1.463-50.276-3.531-54.179 3.02-4.468 5.742-8.938 8.463-13.408.407 29.025 7.106 56.297 7.405 56.299 7.374-29.573-4.438-52.689-6.801-57.193 2.722-4.47 5.146-9.241 7.568-13.713 2.192 30.533 10.979 58.716 10.979 58.716 6.189-31.376-7.711-55.404-10.674-59.612 2.424-4.771 4.55-9.544 6.675-14.318 4.277 31.744 14.851 61.136 15.15 61.138 5.006-33.478-11.284-57.821-14.546-62.031 2.125-4.774 3.953-9.848 5.779-14.623 6.662 32.956 19.324 63.259 19.324 63.259 3.225-35.584-15.158-59.94-19.017-64.454 2.135-6.269 4.27-12.538 6.108-19.109-.596-.303-1.493-.309-2.09-.612-1.538 6.572-3.673 12.842-5.808 19.111-5.394 1.46-33.555 8.455-56.967 20.868z" fill="url(#paint0_linear)"/><path d="M241.428 256.09c-.299-.002 20.411-10.936 28.351-35.717.872 3.895 1.744 7.791 2.316 11.684-3.31 2.97-18.656 16.932-28.933 33.32-.299-.002 20.102-9.442 29.226-32.42l1.718 11.68c-3.308 2.671-18.642 14.837-29.51 30.025-.299-.002 19.494-7.95 29.504-29.127l.82 11.674c-3.303 2.072-18.63 13.042-29.787 26.732-.299-.002 18.888-6.757 29.783-26.134.274 3.892.248 7.781.221 11.97-3.302 1.773-18.617 10.948-29.768 23.74 0 0 18.282-5.565 29.764-23.142-.026 3.89-.351 7.777-.677 11.964-3.001 1.476-18.007 9.156-29.449 20.75 0 0 17.676-4.372 29.447-20.451-.325 3.888-.65 7.775-1.276 11.96-2.998 1.177-17.697 7.662-28.832 18.061 0 0 16.77-3.181 28.83-17.762-.624 3.886-1.247 7.771-2.17 11.655-2.698.879-16.791 6.172-28.217 15.372 0 0 15.867-2.289 27.916-15.075l-2.769 11.65c-2.397.583-16.182 4.681-27.304 12.985 0 0 14.965-1.397 27.003-12.687-1.222 3.881-2.145 7.765-3.666 11.644-2.098.585-15.277 3.49-26.092 10.6 0 0 14.061-.506 25.791-10.302-1.222 3.881-2.741 7.462-4.262 11.341-2.096.286-14.372 2.299-24.583 8.515 0 0 13.16.087 24.581-8.216-1.521 3.88-3.34 7.459-5.158 11.037-1.794-.012-13.167 1.11-23.374 6.728 0 0 12.259.679 23.073-6.431-1.818 3.579-3.638 7.456-5.755 11.033-1.496-.01-11.966.22-21.568 4.944 0 0 11.058 1.27 21.566-4.645-2.118 3.576-4.235 7.153-6.651 10.727-.898-.005-10.765-.37-20.063 3.459 0 0 10.159 1.563 19.762-3.161-.906 1.191-1.813 2.681-2.718 3.871-.6.296-11.09 3.518-19.508 10.045 0 0 10.781-2.024 19.508-10.045-1.206 1.488-2.115 3.278-3.321 4.766.002-.299.301-.297.303-.597 0 0-9.622 7.716-15.669 17.55 0 0 9.915-6.816 15.364-16.654 1.206-1.488 2.414-3.275 3.62-4.763-.608 1.492-5.163 11.934-5.826 21.803 0 0 6.355-11.328 5.828-22.103.905-1.19 1.813-2.681 2.718-3.871-.67 10.767 2.256 20.66 2.256 20.66 2.466-11.055-1.961-20.06-2.254-20.96 2.416-3.574 4.531-6.851 6.649-10.428-.079 11.968 4.037 22.766 4.037 22.766 1.875-12.255-3.447-21.565-4.037-22.766 2.117-3.576 3.935-7.155 6.052-10.731.813 12.871 5.82 24.573 5.82 24.573 1.583-13.155-4.93-23.371-5.82-24.573a181.506 181.506 0 005.158-11.037c2.003 13.777 7.904 26.083 7.904 26.083.692-14.357-6.716-24.878-7.902-26.382 1.521-3.88 3.04-7.46 4.561-11.34 2.894 14.68 10.287 27.595 10.287 27.595.102-15.558-8.799-26.388-9.986-27.892 1.222-3.881 2.743-7.761 3.666-11.645 4.085 15.586 12.67 29.107 12.67 29.107-.787-16.761-10.885-27.599-12.668-29.406 1.222-3.881 2.145-7.765 3.068-11.648 5.574 16.492 15.353 30.32 15.353 30.32-1.975-17.965-13.269-28.811-15.351-30.62.923-3.883 1.547-7.769 2.17-11.654 7.066 17.101 18.04 31.236 18.04 31.236-3.166-18.871-15.657-29.725-18.038-31.535.624-3.886 1.248-7.772 1.575-11.958 8.557 17.709 21.026 31.854 21.026 31.854-4.356-19.776-18.342-30.64-21.022-32.453.324-3.887.649-7.775.677-11.963 10.05 18.018 24.013 32.472 24.312 32.474-5.545-20.981-21.329-31.258-24.308-33.073l.079-11.967c11.843 18.329 27.301 32.793 27.6 32.795-7.034-21.888-24.316-31.876-27.594-33.693-.274-3.891-.248-7.781-.819-11.973 13.638 18.341 30.888 33.116 30.888 33.116-8.824-22.499-27.305-32.195-30.884-33.715-.273-3.891-.846-7.785-1.418-11.678 15.43 18.652 34.18 32.839 34.479 32.84-10.614-23.407-30.595-32.216-34.473-33.738-.573-3.893-1.445-7.788-2.316-11.684 17.526 18.367 37.771 32.563 38.07 32.565-12.404-24.018-33.887-31.939-38.064-33.462-1.165-4.795-2.328-9.889-4.091-14.688-.6.295-1.198.291-1.499.588 1.464 4.797 2.928 9.594 4.092 14.389-3.305 2.372-18.364 18.13-28.052 35.719z" fill="url(#paint1_linear)"/><path d="M217.62 147.323c-.303.596-30.24 4.587-33.9 15.335-4.262 11.341 5.901 12.306 5.901 12.306-.303.596-32.054 7.568-36.593 15.616-4.843 8.645 4.403 12.596 4.403 12.596-.002.299-25.147 3.425-32.374 10.857-7.23 7.732 3.829 9.001 3.829 9.001-.002.3-23.357 4.035-29.372 9.082-6.017 5.346 3.217 11.092 3.516 11.094-.002.299-25.145 3.125-29.36 7.286-4.219 4.76 1.446 7.49 1.446 7.49-.002.299-29.342 4.594-28.517 15.67 1.117 11.975 32.576 3.805 32.28 3.504 0 0-4.523 5.355 1.445 7.489 6.266 2.435 32.375-10.857 32.078-11.158 0 0-5.455 10.735 3.516 11.094 9.269.36 33.008-16.239 32.711-16.54 0 0-8.743 10.414 3.829 9.001 13.169-1.409 34.558-24.606 33.962-24.909 0 0-2.166 11.056 9.809 9.34 12.873-1.71 36.131-36.264 35.533-36.268 0 0-2.767 11.351 12.217 6.962 15.885-4.982 25.093-40.526 24.493-40.231.001-.299 3.744 21.866 21.847-1.95 18.412-25.311-16.054-60.246-16.058-59.648-.301.297-46.259-15.265-61.007-1.3-15.351 14.56 4.066 18.279 4.366 18.281z" fill="url(#paint2_linear)"/><path opacity=".07" d="M213.852 129.046c-15.948 14.556 3.469 18.275 3.768 18.277-.303.596-30.24 4.587-33.9 15.335-4.262 11.341 5.901 12.306 5.901 12.306-.303.596-32.054 7.568-36.593 15.616-4.843 8.645 4.403 12.596 4.403 12.596-.002.299-25.147 3.425-32.374 10.857-2.712 2.974-3.024 5.066-1.836 6.271 33.868-10.548 83.863-17.399 102.797 14.142 3.621-4.763 5.738-8.34 6.043-9.235l.002-.3-.002.3c-.307 1.194-1.867 11.058 12.219 6.663 15.285-4.687 24.479-38.137 24.493-40.231.289 1.498 4.35 20.673 21.849-2.25 18.412-25.311-16.053-60.246-16.057-59.647-.004.598-45.963-14.964-60.713-.7z" fill="#1F5148"/><path opacity=".8" d="M201.349 165.467c14.35.992 29.306.791 44.569-.604-17.477 19.632-37.333 37.154-58.667 51.974-14.661.801-29.013.108-43.062-1.182 12.846 2.179 26 3.164 39.756 3.554a325.34 325.34 0 01-70.831 36.933c-.598-.004-1.794-.012-3.288-.321-2.39-.315-5.68-.337-8.968-.658-3.288-.32-6.28-.34-8.969-.657-2.393-.016-3.886-.325-3.886-.325s1.493.309 3.884.624c2.39.315 5.38.634 8.668.955 3.288.321 6.578.342 8.97.358l3.29.022c-16.792 6.472-33.874 11.445-51.543 14.919 29.649-5.788 58.426-15.472 85.435-29.057-.602.594-1.508 1.785-2.716 3.572-1.812 2.681-4.525 5.954-6.942 9.529l-6.645 9.83-3.02 4.468s1.507-1.785 3.915-4.163c2.112-2.679 4.825-5.952 7.541-9.525 2.416-3.574 4.832-7.149 6.346-9.832.909-1.789 1.816-3.279 2.119-3.875 13.504-6.793 26.414-14.188 39.033-22.782 11.116-7.407 21.639-15.715 31.865-24.324-2.788 14.642-6.777 29.875-11.96 44.801 6.385-15.815 11.275-31.641 14.668-47.177a335.993 335.993 0 0044.58-47.579 335.897 335.897 0 019.639 35.071c-1.709-12.877-4.318-25.461-7.828-37.452 4.828-6.551 9.358-13.104 13.89-19.955-.896-.305-1.49-.908-2.385-1.213-9.368 14.599-19.628 28.295-30.781 41.386-15.866 1.99-31.426 3.084-46.677 2.685z" fill="#1F5148"/><path opacity=".82" d="M181.724 57.026c-.301.297 28.491-11.481 60.408 1.595-3.262-4.21-6.525-8.42-9.789-12.332-5.988.858-33.23 4.568-58.332 1.111-.301.298 26.702-12.39 57.74-2.013-3.264-3.91-6.828-7.824-10.391-11.737-5.392 1.161-31.149 6.377-55.662 4.42-.301.297 24.911-13 55.068-5.022-3.566-3.614-7.428-7.53-11.295-10.846-5.094 1.462-29.064 7.887-52.69 7.432-.002.299 23.12-13.611 51.797-8.036a195.341 195.341 0 00-11.896-10.252c-4.499 1.766-26.981 9.397-49.417 9.847-.002.3 21.328-13.922 48.822-10.45-4.165-3.318-8.333-6.337-12.5-9.357-4.199 1.768-24.893 10.308-46.141 11.963 0 0 19.536-14.233 45.547-12.565-4.168-3.02-8.635-6.041-13.103-8.763-3.603 2.07-22.806 11.219-42.862 13.78 0 0 17.741-14.245 42.565-14.082-4.469-2.722-8.937-5.444-13.707-7.87-3.304 2.073-20.716 11.832-39.582 15.298 0 0 15.946-14.256 39.285-15.598-4.77-2.425-9.539-4.85-14.311-6.976-2.705 2.076-18.626 12.443-36.3 16.516 0 0 14.451-14.267 36.003-16.818-4.772-2.126-9.842-4.253-14.915-6.082-2.404 1.78-16.532 12.457-33.016 17.435 0 0 12.655-13.979 32.717-17.437-5.073-1.829-10.145-3.657-15.22-5.187-1.806 1.783-14.439 12.471-29.728 17.756 0 0 11.155-13.39 29.429-17.758-5.075-1.53-10.448-3.06-15.525-4.291-1.505 1.486-12.345 12.485-26.44 18.077 0 0 9.656-12.802 26.44-18.077-5.376-1.232-10.751-2.465-16.129-3.398-1.206 1.489-10.547 11.899-23.447 17.798 0 0 8.455-12.212 23.148-17.8-5.378-.933-10.755-1.866-16.434-2.502-.604.894-8.748 11.313-20.454 17.519 0 0 6.956-11.624 20.155-17.52-2.092-.314-4.185-.327-6.277-.64-.901.592-12.916 8.292-26.993 11.191 0 0 11.427-9.2 26.694-11.193-2.69-.317-5.082-.333-7.772-.65.299.002.598.004.895.305 0 0-15.873 3.187-31.412.99 0 0 15.283-4.387 30.218-1.297 2.691.018 5.381.335 8.071.652-2.09-.612-16.418-4.896-27.134-12.746 0 0 17.026 3.404 27.433 12.748 2.094.014 4.185.326 6.277.64-11.61-8.455-19.01-20.172-19.01-20.172 13.115 6.968 18.719 18.973 19.31 20.173 5.379.634 11.057 1.27 16.435 2.203-12.195-10.253-19.586-23.467-19.586-23.467 14.004 8.171 19.297 21.97 19.885 23.47 5.378.932 10.755 1.865 16.131 3.098-12.483-12.05-19.863-26.76-19.863-26.76 14.59 9.97 19.576 24.962 20.162 26.762 5.376 1.232 10.45 2.761 15.824 4.293-12.47-13.846-19.84-30.35-19.84-30.35 15.478 11.471 19.557 27.954 20.139 30.352 5.075 1.53 10.148 3.358 15.22 5.187-12.459-15.641-19.517-33.94-19.517-33.94 15.765 13.27 19.236 31.245 19.816 33.941 5.073 1.83 9.844 3.955 14.915 6.083-12.146-17.733-18.596-37.523-18.596-37.523 16.351 15.068 18.616 34.531 19.192 37.826 4.772 2.126 9.542 4.551 14.311 6.976-11.835-19.526-17.675-41.107-17.673-41.406 16.338 17.162 17.994 38.117 17.972 41.408 4.77 2.425 9.238 5.148 14.006 7.872-11.223-21.617-16.154-44.987-16.154-44.987 16.623 19.258 16.776 41.4 16.75 45.29 4.469 2.722 8.935 5.744 13.404 8.466-10.611-23.707-14.635-48.568-14.336-48.566 16.609 21.353 15.257 44.982 14.93 49.168 4.467 3.022 8.634 6.041 12.8 9.36-9.702-25.496-12.518-52.144-12.217-52.441 16.296 23.445 13.74 48.262 13.112 52.746 4.166 3.319 8.032 6.636 12.196 10.253-8.492-27.582-10.102-55.718-9.8-56.015 15.981 25.837 11.622 51.839 10.693 56.62 3.864 3.616 7.729 7.232 11.294 10.846-6.983-29.668-7.385-59.291-7.084-59.589C231.75.208 225.59 27.095 224.36 32.174a207.04 207.04 0 0110.691 11.74c-5.476-31.453-4.072-62.86-4.072-62.86 14.753 30.616 6.494 58.387 4.664 63.76 3.563 3.914 6.826 8.124 9.789 12.333-3.667-33.535-.76-66.13-.461-66.127 13.84 33.003 3.481 61.659 1.352 67.03 4.152 5.413 7.706 10.822 11.556 16.532-.6.296-1.202.89-1.802 1.185-3.552-5.708-7.404-11.119-11.257-16.53-8.38.842-37.107 2.747-63.096-2.211z" fill="url(#paint3_linear)"/><path d="M230.88-3.987c-.295-.6-30.176-4.986-33.694-15.78-4.112-11.397 6.063-12.228 6.063-12.228-.295-.6-31.951-7.99-36.384-16.098-4.728-8.708 4.569-12.536 4.569-12.536.002-.3-25.098-4.055-32.229-11.283-7.126-7.826 3.948-8.95 3.948-8.95.002-.3-23.301-4.343-29.25-9.468-5.946-5.425 3.363-11.049 3.662-11.047.002-.299-25.101-3.456-29.26-7.673-4.156-4.814 1.544-7.47 1.544-7.47.002-.299-29.279-4.98-28.309-16.044 1.276-11.96 32.624-3.375 32.323-3.078 0 0-4.45-5.415 1.545-7.47 6.297-2.352 32.229 11.283 31.927 11.58 0 0-5.312-10.806 3.663-11.046 9.273-.238 32.791 16.672 32.49 16.969 0 0-8.605-10.528 3.947-8.95 13.15 1.583 34.231 25.06 33.631 25.355 0 0-2.021-11.084 9.931-9.21 12.849 1.88 35.65 36.738 35.052 36.734 0 0-2.617-11.387 12.308-6.8 15.818 5.19 24.556 40.853 23.959 40.55-.002.3 4.032-21.815 21.82 2.239 18.077 25.551-16.846 60.028-16.842 59.43-.298-.301-46.458 14.654-61.02.495-15.157-14.76 4.309-18.522 4.606-18.22z" fill="url(#paint4_linear)"/><path opacity=".05" d="M226.872 14.238c-15.755-14.765 3.709-18.227 4.009-18.225-.296-.6-30.177-4.986-33.695-15.78-4.112-11.397 6.063-12.228 6.063-12.228-.295-.6-31.951-7.99-36.384-16.098-4.728-8.708 4.569-12.536 4.569-12.536.002-.3-25.098-4.055-32.228-11.283-2.672-3.01-2.958-5.106-1.753-6.295 33.725 10.994 83.626 18.504 102.974-12.785 3.558 4.81 5.628 8.415 5.921 9.314l-.002.3.002-.3c-.291-1.198-1.722-11.082 12.306-6.501 15.222 4.888 23.973 38.456 23.96 40.55.309-1.494 4.622-20.614 21.817 2.538 18.077 25.551-16.846 60.029-16.842 59.43.006-.897-45.855 14.06-60.717-.1z" fill="#1F5148"/><path opacity=".8" d="M215.151-22.641c14.362-.803 29.315-.405 44.558 1.191-17.216-19.86-36.84-37.643-57.976-52.743-14.65-.994-29.01-.49-43.075.614 12.875-2.01 26.04-2.82 39.8-3.029a325.271 325.271 0 00-70.338-37.864 16.047 16.047 0 00-3.291.278c-2.395.283-5.685.261-8.977.539-3.292.277-6.283.257-8.977.539-2.392-.016-3.89.274-3.89.274s1.498-.29 3.892-.573c2.395-.284 5.388-.563 8.68-.841 3.292-.277 6.582-.255 8.974-.24l3.29.022c-16.705-6.693-33.72-11.891-51.342-15.598 29.57 6.179 58.217 16.242 85.045 30.182-.595-.602-1.484-1.805-2.669-3.608-1.776-2.705-4.446-6.013-6.815-9.619l-6.515-9.917-2.962-4.508s1.486 1.506 3.861 4.215c2.076 2.706 4.746 6.015 7.414 9.623 2.369 3.606 4.738 7.212 6.216 9.915.885 1.801 1.773 3.303 2.068 3.903 13.413 6.97 26.225 14.535 38.729 23.294 11.017 7.553 21.43 15.999 31.542 24.743-2.595-14.679-6.383-29.963-11.369-44.956 6.176 15.899 10.857 31.787 14.045 47.367a336.039 336.039 0 0143.949 48.162 335.944 335.944 0 0010.101-34.94c-1.88 12.853-4.654 25.402-8.322 37.346 4.742 6.613 9.185 13.225 13.625 20.136-.899.293-1.501.888-2.4 1.181-9.175-14.721-19.253-28.551-30.233-41.789-15.838-2.199-31.683-3.2-46.638-3.3z" fill="#1F5148"/><path d="M290.702 222.605s27.906 77.08-92.381 129.844c.002-.299.846-128.353 92.381-129.844z" fill="url(#paint5_linear)"/><path opacity=".1" d="M233.107 247.957c23.242 13.318 22.433 45.328 16.86 74.015 59.537-47.78 40.735-99.367 40.735-99.367-25.726.429-44.338 10.779-57.595 25.352z" fill="#1A7F72"/><path opacity=".4" d="M220.978 273.01l35.93-5.747-27.182 39.914-20.36 3.157 19.152-1.37-8.156 12.214-.599-.004-.004.598-12.985 18.764 12.978-17.567.499 14.964 1.307-16.747-.299-.002 23.54-31.86.702 29.626 1.108-32.007 28.973-39.304-.01 1.496-.099 14.959-.144 21.841s.669-10.767 1.042-21.835c.334-5.383.669-10.767.696-14.955.01-1.496.319-2.99.327-4.187l15.394-21.142-4.168-3.02-30.201 44.083-37.441 8.131z" fill="#1F5148"/><path d="M230.974 72.61S217.939 8.195 113.76 22.17c0 0 53.56 87.421 117.214 50.44z" fill="url(#paint6_linear)"/><path opacity=".1" d="M180.683 78.86c10.294-18.781-3.322-40.414-19.361-57.574 60.666 7.88 69.352 51.322 69.352 51.322-17.715 10.355-34.767 10.841-49.991 6.253z" fill="#1A7F72"/><path opacity=".6" d="M162.217 67.07l26.991-10.893-35.19-15.79-15.295 6.182 13.507-7.092-10.736-4.858-.301.298-.295-.6-16.7-7.591 16.108 6.689-5.913-10.511 8.004 10.824-.301.297 29.232 12.16-11.83-20.423 14.217 21.337L209.807 62c-.297-.302-.295-.601-.592-.902-1.777-2.705-4.144-6.61-6.214-10.214-4.437-7.51-9.175-14.722-9.175-14.722s4.738 7.212 9.776 14.426c2.369 3.606 5.037 7.215 6.813 9.92.892.903 1.484 1.804 1.777 2.704l19.39 7.907-1.521 3.88-39.066-17.612-28.778 9.684z" fill="#1F5148"/><path d="M137.157 193.468s-26.463 66.847-136.001 31.716c0 0 74.73-83.882 136.001-31.716z" fill="url(#paint7_linear)"/><path opacity=".2" d="M27.33 202.019c28.168-7.893 54.173-5.328 77.312 23.548 24.608-12.404 32.514-32.099 32.514-32.099C98.49 160.6 54.681 181.853 27.33 202.019z" fill="#1A7F72"/><path opacity=".6" d="M61.83 186.389l27.106 16.934-41.045 10.5-15.49-9.676 13.392 10.261-12.583 3.208-.297-.301-.301.297-19.475 4.958 18.87-4.064-8.142 10.119L34.4 218.522l-.297-.301 33.846-7.257-16.582 19.937 19.276-20.219 41.933-8.999-.903.892c-2.41 2.677-5.724 6.246-8.739 9.816L90.278 226.67s6.625-6.839 13.251-13.676c3.311-3.27 6.625-6.838 9.333-9.214l2.408-2.378 22.465-4.938-1.167-4.496-45.538 11.369-29.2-16.948z" fill="#1F5148"/><defs><linearGradient id="paint0_linear" x1="-58.694" y1="-180.777" x2="439.672" y2="815.121" gradientUnits="userSpaceOnUse"><stop stop-color="#41CBB9"/><stop offset="1" stop-color="#307E70"/></linearGradient><linearGradient id="paint1_linear" x1="57.443" y1="177.996" x2="711.711" y2="592.572" gradientUnits="userSpaceOnUse"><stop stop-color="#41CBB9"/><stop offset="1" stop-color="#307E70"/></linearGradient><linearGradient id="paint2_linear" x1="-298.684" y1="-19.698" x2="592.728" y2="580.152" gradientUnits="userSpaceOnUse"><stop stop-color="#41CBB9"/><stop offset="1" stop-color="#3EB39D"/></linearGradient><linearGradient id="paint3_linear" x1="86.72" y1="287.691" x2="199.905" y2="-422.744" gradientUnits="userSpaceOnUse"><stop stop-color="#41CBB9"/><stop offset="1" stop-color="#307E70"/></linearGradient><linearGradient id="paint4_linear" x1="-469.581" y1="241.489" x2="429.671" y2="-346.559" gradientUnits="userSpaceOnUse"><stop stop-color="#41CBB9"/><stop offset="1" stop-color="#359D8A"/></linearGradient><linearGradient id="paint5_linear" x1="-492.886" y1="175.937" x2="733.33" y2="361.1" gradientUnits="userSpaceOnUse"><stop stop-color="#41CBB9"/><stop offset="1" stop-color="#32BFA6"/></linearGradient><linearGradient id="paint6_linear" x1="-371.727" y1="501.099" x2="580.99" y2="-293.179" gradientUnits="userSpaceOnUse"><stop stop-color="#41CBB9"/><stop offset="1" stop-color="#4DD0B9"/></linearGradient><linearGradient id="paint7_linear" x1="-287.952" y1="-215.766" x2="510.097" y2="733.856" gradientUnits="userSpaceOnUse"><stop stop-color="#41CBB9"/><stop offset="1" stop-color="#2EA892"/></linearGradient></defs></svg>