<svg width="230" height="230" fill="none" xmlns="http://www.w3.org/2000/svg"><path d="M109.857 64.071c.411.411.823.822.823 1.233l1.234 1.232c.412.41.823.41 1.646.821 1.234.41 2.88.41 4.114-.41 1.646-.822 2.469-2.465 2.469-4.108v-2.464c0-.41 0-.821-.411-1.643 0-.41-.412-.821-.412-1.232 0-.41 0-.41-.411-.821-.412-.411-.412-.822-.823-1.233-.412-.821-1.234-1.232-2.057-1.232-1.235-.41-2.058 0-3.292.411-.823.41-1.234.821-1.646 1.643 0 0-.411 0-.411.41-.412.411-.823.822-.823 1.233-.412.41-.412 1.232-.823 1.643v2.464c.411.821.823 1.232.823 2.053zm9.875-4.107c0-.41 0-.41-.412-.821.412.41.412.41.412.821z" fill="#fff"/><path d="M119.32 57.5c.411 0 .411 0 0 0 0 .41.411.41.411.821 0-.41 0-.41-.411-.821zM88.462 82.553c3.703 0 6.994.411 10.697.411 6.584.411 12.755.822 19.338 0 2.058-.41 4.526-.41 6.584-.821v1.643c0 1.642-.412 3.285-.412 5.339v4.107c-3.703-.41-6.994 0-10.286.822-4.526 1.232-9.875 2.874-13.578 6.16-6.995 5.34-6.995 14.375-6.995 22.179v.821c-3.291 2.875-6.171 6.161-7.817 9.857-3.703 7.804-3.703 17.25.411 24.643 2.058 3.697 5.35 7.393 9.464 9.036 4.114 2.054 10.697 4.107 14.4.411.823-.822.823-2.054 0-2.465-2.468-2.464-6.171-2.464-9.051-3.696-2.47-1.232-4.938-2.875-6.584-5.339-3.703-4.929-4.525-11.09-2.88-16.84 3.292-12.321 18.104-18.892 30.036-15.607 1.646.411 3.292 1.232 4.526 2.054 1.646 1.232 3.703 2.053 5.349 3.696 2.88 2.875 5.76 9.447 2.88 13.554-2.469 3.696 5.349 4.928 4.114.411-.822-2.054-.411-4.518-.822-6.572-.412-2.464-1.235-4.518-2.058-6.571-2.057-4.107-4.114-7.804-8.229-10.268-7.406-4.518-16.458-4.518-23.864-1.643-1.646.411-2.88 1.232-4.526 2.054 0-5.34.412-11.911 4.938-15.197 3.291-2.464 7.406-2.875 11.109-2.875 4.526 0 8.64.411 13.166 1.232 3.292.411 6.172-2.053 5.349-5.339-.823-3.697-1.234-6.982-1.646-10.679 0-1.642-.411-3.696-.823-5.339 2.058-.41 3.703-.821 5.761-.821 5.76-.822 10.697-.822 16.458 0 1.645.41 2.88-2.054 1.234-2.875-4.115-2.465-10.286-1.643-14.812-1.643-6.583 0-13.578-.41-20.161 0-7.406 0-14.401.41-21.396-.41-5.76-.412-15.223-2.055-20.16 2.463-1.646 1.643-.412 3.697 1.234 4.518 2.057.411 5.76-.41 9.052-.41z" fill="#fff"/><path d="M228.764 135.946c-6.583-2.875-7.817-11.089-12.343-16.017-2.058-2.465-4.938-4.108-7.818-5.34 2.469-1.232 4.937-2.875 6.583-4.928 4.115-4.518 5.761-11.09 10.698-14.786 2.469-2.054.411-5.34-2.469-5.75-.823 0-2.88-.41-3.703-.822-1.646-.82-2.88-1.642-4.526-2.464-2.88-2.053-5.349-4.107-8.64-6.16-2.057-1.233-4.526-2.465-6.995-2.876.823-1.232 1.646-2.874 2.057-4.517 1.646-3.697 2.058-7.393 2.058-11.09.411-4.107.411-7.803 2.88-11.089 1.646-2.464-2.469-6.16-4.526-3.286-1.646 2.054-3.292 3.286-6.172 3.286-2.469 0-5.349-.821-7.817-.821-3.292 0-5.761.41-7.818 2.053.412-2.053.823-4.107.823-6.16 0-3.697-.823-7.393-1.646-10.679-.823-3.697-1.234-6.982.823-10.268 1.646-2.875-2.469-4.928-4.114-2.464-.823 1.232-4.115 1.643-5.761 2.053-2.057.411-4.526 0-6.994 0-3.703 0-6.995.411-10.287 2.465-1.234.821-2.057 1.232-3.291 2.053v-2.464c0-2.875-1.234-6.16-2.469-8.625-1.234-2.875-3.291-4.929-4.937-7.393-2.057-2.464-3.292-5.34-3.703-8.214-.412-2.875-4.115-2.464-4.938 0-1.234 3.286-3.291 4.928-6.171 6.16-2.881 1.233-6.172 2.465-9.052 4.108-2.469 1.643-4.115 4.518-5.349 7.393-.823-1.643-2.057-3.286-3.703-4.929-2.057-2.054-4.526-3.697-6.995-5.75-2.468-2.054-4.526-4.107-5.76-6.982-.823-1.643-3.292-1.643-4.114 0-1.235 2.875-2.47 5.75-4.526 8.214-2.058 2.464-4.526 4.929-6.172 7.804-1.646 2.464-2.469 5.339-2.469 8.625l-.823-.822c-2.468-2.053-5.76-3.285-9.052-3.696-3.703-.41-6.994.41-10.697.41-2.88 0-5.35-.41-7.818-.82-.411-.412-.823-1.233-1.234-1.644-.823-.821-2.057-.41-1.646.822v.821c-.411.41-.411.822 0 .822v3.285c0 1.643-.411 3.286-.411 4.518-.412 3.286-1.646 6.572-1.235 10.268 0 2.464.823 4.928 1.646 7.393C46.081 46.82 43.612 46 41.555 46c-1.646 0-3.703.41-5.349.41-1.646.411-3.292.822-5.349 1.233-3.703.821-7.406 0-11.109-.41-.823 0-1.646 1.231-1.234 1.642 0 .41.411.41.411.821h-.411c-.412 0-.823.822-.412 1.233.823.821.823 1.642.823 2.464 0 1.643 0 2.875-.411 4.518-.412 2.875-1.235 5.75-.412 9.035.823 4.518 4.115 7.804 8.23 10.679-2.47 0-4.527.41-6.995 1.232-2.88.822-5.35 2.875-7.818 4.518-1.234.821-2.88 2.053-4.526 2.875-1.234.821-2.469 1.232-3.703 1.643l-.411.41c-.823 0-1.235.411-1.646.822v1.232c0 .41.411.41.823.41l.411.412c.412.41.823.41 1.234.821.823 1.232 1.235 2.464 1.646 3.696 1.235 2.875 1.646 6.161 3.292 9.036 2.057 4.518 6.172 6.982 10.698 8.625-2.058 1.232-4.115 2.875-5.76 4.518-2.058 2.054-2.88 4.518-4.527 6.982-1.234 1.643-3.291 4.518-5.76 4.107-2.057-.41-3.292 2.465-1.646 3.286 2.88 1.643 5.76 4.518 8.23 6.571 2.468 4.108 5.76 6.983 9.463 9.036 1.645.822 3.291 1.643 4.937 2.054-1.234 2.053-1.646 4.518-2.057 6.982-.823 6.161 1.234 13.553-2.469 18.893-.823 1.232.412 3.285 2.057 3.285 4.526-.41 8.64 1.233 13.167 2.054 3.703.821 7.817 1.643 11.52.821h.412c-.823 2.465-.412 5.75 0 8.215.411 2.875 1.234 6.16 1.645 9.035v3.286c-.411 1.643-.822 2.054-1.645 3.697-.823 2.464 2.057 4.517 4.114 3.285 3.292-2.053 7.818-2.053 11.52-2.053 4.115-.411 7.407-1.232 11.11-2.465 1.234-.41 2.469-1.232 3.703-2.053.411 2.464 1.234 4.928 2.469 6.982 3.703 6.161 9.874 10.679 12.343 17.661.823 2.464 5.349 2.464 4.937-.822-.411-6.571 7.406-7.393 11.932-9.857 2.469-1.232 4.526-3.696 6.172-6.161.823 2.054 2.469 3.286 4.115 4.929 1.645 1.232 3.291 1.643 4.937 2.054 1.646.41 3.703.41 5.349 1.232 3.291 1.232 4.937 4.518 7.406 6.982 2.469 2.053 6.172-.411 4.526-3.697-1.234-2.464-.412-4.928 1.234-6.982 1.646-2.464 3.703-4.928 4.938-7.393.823-2.053 1.645-4.107 2.057-6.571 1.646 1.643 3.291 3.286 4.937 4.518 3.292 2.053 7.406 1.643 11.109 1.643 4.115-.411 8.229-.822 11.521 2.053 2.469 2.465 6.995-.821 4.937-3.696-2.057-2.875-2.057-5.339-1.234-8.625.823-3.286 2.057-6.982 2.057-10.679 0-2.464-.823-4.928-1.646-7.393 2.058.822 4.526.822 6.584.411 2.88-.411 6.171-.821 9.052-.821 2.057 0 4.114 0 6.171.821.412.411.823.822 1.646 1.232 3.292 1.643 5.76-2.875 2.88-4.928-2.88-1.643-2.469-4.929-2.057-7.804.411-3.696 1.234-6.982.823-10.678-.412-2.054-.823-4.108-2.057-5.75 2.468-.411 4.937-1.233 6.994-2.465 4.115-2.875 8.641-9.035 14.401-7.803 1.646.41 2.88-.411 3.703-1.643s.411-2.875-.823-3.697zm-37.03-81.732c2.468.411 5.349.822 7.406.411-.823 4.518-.823 9.036-2.057 13.553-.823 2.876-2.469 5.75-4.526 7.804-.823 1.232-2.058 2.054-3.292 2.875-.411.41-1.234.41-1.646.822-.823-1.643-1.646-3.286-2.88-4.929-2.88-4.518-5.76-9.036-9.052-13.554.823-1.232 2.057-2.464 2.469-4.107.411 0 .411 0 .823-.41 1.646-1.643 3.291-3.286 5.76-3.697 2.469-.41 4.937.822 6.995 1.232zM157.995 28.75c3.291-1.232 7.406-.41 10.698-.41 1.645 0 3.703 0 5.348-.412-.411 4.518 1.235 9.447 1.646 13.965.412 2.875 0 6.16-1.234 8.625-.823 1.232-1.646 2.875-2.469 4.107-.411.41-.411.821-.823 1.232-6.172-6.982-14.812-12.321-23.864-16.018 1.235-1.232 1.235-3.696 1.646-5.339l.823-.822c2.469-2.464 5.349-4.107 8.229-4.928zm-41.145-6.982c1.234-3.286 3.292-5.34 6.583-6.982 2.88-1.232 5.76-2.054 8.641-3.286 1.234-.822 2.468-2.054 3.703-3.286 1.645 2.875 3.703 5.34 5.348 8.625 1.235 2.054 2.469 4.929 2.469 7.393 0 2.464-.411 4.929-1.234 7.393-.412 1.643-.823 3.696-.823 5.75-2.88-1.232-5.76-2.054-8.641-3.286-5.348-1.643-10.697-2.875-16.869-2.875 0-.821-.411-2.053-.411-2.875 0-.41-.412-.821-.412-1.643.412-1.643.823-3.285 1.646-4.928zm-33.739 4.518c.412-2.875 1.646-5.34 3.703-7.393 2.88-3.286 6.583-6.572 8.64-10.268 2.88 3.286 6.172 5.75 9.464 8.625 2.057 2.053 3.703 4.928 4.526 7.803.411 1.643.823 2.875.823 4.518 0 .411 0 1.232.411 1.643-8.229.411-16.458 1.643-24.275 4.518 0-.41 0-.821-.412-1.643-.411-1.232-1.234-2.053-2.057-2.875 0-.41-.411-.821-.411-1.232-.823-1.232-.823-2.464-.412-3.696zM23.862 68.589c-.411-.821-.411-1.232-.822-2.053v-.822c0-3.285.411-6.16-.412-9.446 0-1.232-.823-2.465-1.646-3.697 4.938 2.054 11.11.411 16.458 0 2.469 0 4.938.411 7.406 1.643 2.47 1.232 4.526 3.286 6.584 4.518-4.938 2.054-9.875 11.91-11.521 14.786-.823 1.232-1.234 2.875-2.057 4.107-.412-.41-.823-.41-1.235-.822-3.291-.82-6.994-2.464-9.463-4.517-1.234-1.233-2.469-2.465-3.291-3.697zM14.4 104.732c-.411-.821-1.234-1.643-1.646-2.464 0-.411-.411-.822-.411-.822v-.41C11.108 97.75 9.873 94.464 7.816 92c-.411-.41-.411-.822-.823-.822 1.234-.41 2.469-.82 3.703-1.232 2.88-1.232 5.349-3.285 8.23-4.517 2.468-.822 5.348-1.233 8.228-.822 1.234 0 2.88 0 4.115.41 1.645.412 2.057.412 3.291 1.233.412 0 .823.41.823.41a81.979 81.979 0 00-4.937 24.233h-.412c-3.703 0-7.406-.411-10.697-2.054-2.47-1.643-3.704-2.875-4.938-4.107zM6.582 132.25c2.88-2.054 4.526-5.75 6.583-8.214 1.646-2.054 3.703-3.697 6.172-4.929 2.468-1.232 5.76-2.875 8.64-2.053h1.646c0 9.035 1.234 18.071 4.114 26.696-2.057 0-3.703.411-5.349 1.232-3.291 0-6.171-2.053-8.64-3.696-4.526-2.465-8.64-6.572-13.166-9.036zm38.676 44.768c-3.292.411-6.995-.411-10.286-.822-2.88-.41-6.172-.41-9.052-.821.823-1.643 1.234-3.696 1.234-5.339.412-3.286.823-6.982.823-10.268 0-2.875.411-6.161 1.234-8.214 0-.411.412-.411.412-.822h.411c1.646-.411 3.703-.821 4.938-2.053 1.234 2.875 2.468 5.339 3.703 7.803 3.703 6.161 8.229 11.089 13.166 16.429-1.234 2.464-3.292 4.107-6.583 4.107zm25.51 23.821c-3.292 1.232-6.584 1.643-10.287 2.054-2.057 0-3.703.411-5.76.411h-.411c0-3.697-1.235-8.215-2.058-11.09-.822-2.875-1.645-5.339-1.645-8.214 0-1.643.411-2.875 1.234-4.107 1.646-.822 2.88-2.054 4.114-3.286 4.115 4.107 8.64 8.214 13.99 11.089 4.526 2.465 8.229-4.517 4.114-6.571-5.76-3.286-10.697-7.393-15.223-12.321-4.115-4.518-8.64-9.036-11.932-14.375-6.172-10.268-8.64-22.59-8.64-34.911-.412-13.143 2.056-26.286 6.994-38.607 1.234-3.286 2.88-6.983 4.526-10.268.823-2.054 2.057-4.107 3.291-5.75.412-.822 1.646-3.286 2.47-4.107.41-.411.822-1.233 0-1.643-.412-.41-.824-.41-1.235-.822l.411-.41c.412-.822.823-1.643.823-2.465.823-.821.823-2.053 0-3.285-1.234-2.054-2.88-4.108-4.114-6.161-1.235-2.054-1.646-4.518-1.235-6.982 0-3.286.823-6.16.823-9.447 0-1.232 0-2.053-.411-3.285 4.114 1.642 9.463 1.232 13.989 1.642 2.88.411 5.349 1.643 7.406 3.286 2.469 2.054 4.115 4.929 6.583 7.393-6.583 3.286-12.755 7.804-17.28 13.964-2.058 2.465 2.057 5.34 4.114 3.286 15.635-16.428 43.202-20.536 64.186-13.553 12.343 4.107 27.156 10.267 35.796 20.535 4.114 4.929 8.229 9.857 11.521 15.197 1.234 1.642 2.468 3.696 3.703 5.339l1.234 1.232c0 1.643.823 3.286 3.291 3.697.412.821 1.646.821 1.646 0v-.411c2.88-.822 6.172-3.697 8.229-5.34.412 0 1.235 0 1.646.411 2.057.822 4.937 2.465 6.995 4.107 3.703 2.875 7.406 6.161 11.932 8.215-2.058 2.875-3.703 6.16-5.761 9.035-1.645 2.465-3.291 4.108-6.171 5.34-2.058.821-4.526 1.232-6.995 1.232-.823 0-1.646 0-2.88.411 0-2.054-.412-4.108-.412-5.75-.411-4.108-7.406-2.875-6.994.821 1.234 15.196 0 31.214-7.406 44.768-6.583 11.911-16.87 22.589-27.979 29.982-11.932 7.804-27.155 13.964-41.556 11.5-9.463-1.232-19.75-.821-28.39-4.929-.823-.41-1.646 0-1.646.822 0 1.232.823 2.464 1.234 3.286-1.645 2.053-2.88 4.107-4.525 5.75-.412 1.232-2.88 2.464-5.35 3.285zm33.327 13.554c-3.703 2.053-7.817 3.696-9.875 6.982-2.468-3.696-5.76-6.982-9.052-10.268-2.468-2.875-4.114-6.161-4.526-9.446.412-.411.823-.411.823-.822 2.058-1.643 4.115-4.107 4.938-6.571 6.171 2.464 16.046 2.464 20.572 3.286 2.057.41 4.115.821 5.76.821-.411 3.286-.822 6.571-2.468 9.857-1.235 2.875-3.292 4.518-6.172 6.161zm37.442-6.161c-1.646 2.875-4.115 5.75-5.349 9.036-.823-.411-1.234-.822-2.057-1.232-1.646-.822-3.292-1.643-4.938-1.643-1.645-.411-3.703-.411-5.348-.822-2.881-.821-4.526-3.285-5.761-5.75 0-.41-.411-.41-.411-.821.823-2.464 1.646-5.339 1.646-7.804 4.114 0 8.229-.41 12.343-1.642 4.115-1.233 8.229-2.465 11.932-4.108 0 .411.412.822.412 1.233.411 1.642.411 3.696.411 5.339 0 2.875-1.234 5.75-2.88 8.214zm28.801-6.161c-3.703.411-7.406 1.233-11.109.411-2.88-.821-5.349-3.286-7.406-5.339-.411-.411-.823-1.232-1.234-1.643 0-1.643-.412-3.286-1.235-4.929 1.646-.821 3.292-1.642 4.526-2.875 6.172-4.107 11.932-8.625 17.281-13.964.823 1.643 2.057 2.875 2.88 4.107 2.058 2.875 3.292 6.982 3.292 10.679-.412 3.286-1.646 6.161-2.469 9.446-.411 1.232 0 2.465 0 3.697-1.234.41-2.88.41-4.526.41zm20.984-26.285c-3.703.821-7.817 1.232-11.109-.411l-2.469-3.696c-.411-.822-.822-1.233-1.234-2.054 0-.411-.411-.411-.411-.411 5.76-6.571 10.286-13.964 13.577-21.768 3.292 1.233 6.584 2.465 9.052 4.929 2.469 2.464 3.703 5.339 3.703 8.625-.411 4.107-1.645 9.036-.823 13.143-4.114.411-7.406 1.232-10.286 1.643zm20.573-31.625c-2.058 2.053-4.526 3.696-7.818 4.107h-2.057c-2.88-2.875-6.583-4.518-10.698-6.161 2.88-7.803 4.115-16.018 4.526-24.232 2.469.411 5.349.821 7.818 1.643 3.703 1.232 6.994 2.875 9.052 5.75 2.057 2.464 3.291 5.75 4.937 8.214.823 1.232 1.646 2.464 2.469 3.286-2.881 2.053-5.761 4.928-8.229 7.393z" fill="#fff"/></svg>