<svg width="216" height="230" fill="none" xmlns="http://www.w3.org/2000/svg"><path d="M135.764 82.83c-2.795 0-5.59.37-7.986.37-.4 0-.4-.37-.799-.37-.798 0-1.198 0-1.996.37-5.191 0-10.382-.37-15.573-.37-8.785-.37-17.969 0-26.754 0-6.389.37-13.177 1.849-19.566 1.109-.798 0-1.198.74-.798 1.479 3.593 3.698 10.382 2.219 15.173 1.849 9.184-.37 18.368.37 27.552.74 6.389.37 13.177.739 19.566 1.109 0 .37 0 .74.4 1.11.399 2.957.399 5.546.399 8.504 0 3.328 0 6.656-.399 9.984-1.198-1.109-2.795-1.849-3.993-2.589-4.792-2.588-10.382-4.067-15.973-4.437-6.788-.37-13.576.37-19.566 3.698-1.996 1.109-11.979 7.765-9.583 10.354 1.198 1.109 3.594 0 4.792-.37 2.396-1.11 4.392-2.219 6.389-3.328 4.791-2.219 9.184-3.328 14.774-3.328 4.792 0 9.184 1.109 12.778 2.958 1.597.74 3.194 1.479 4.392 2.588.799.37 1.198 1.11 1.597 1.48v.369c-.399-.739 0 0 0 .37.4 1.849 1.997 2.589 3.594 2.589v13.311c-.799.37-1.198.74-1.198 1.48-1.996 4.807-7.187 9.244-12.378 11.093-5.99 2.218-12.778 2.588-19.167 1.479-5.59-1.109-11.98-3.328-15.573-7.765-1.996-2.589-3.194-5.547-3.594-8.875-.399-3.698.4-7.026.799-10.354 0-1.109-1.198-1.479-1.997-1.109-6.788 3.698-4.392 12.572-3.593 18.119.798 6.286 5.19 11.463 10.78 14.791 11.58 6.656 28.751 6.286 40.331-.37 1.996-1.109 3.993-2.958 5.59-4.807 0 5.547-.399 11.463 0 17.01-.399.739 0 1.479.399 2.218.799 2.219 2.396 2.959 3.993 2.589 1.598.37 3.594-.37 3.993-2.589.4-.739.4-1.479.4-2.218.399-7.766 0-15.901 0-23.666 0-8.874 0-17.749-.4-26.254 0-5.916 0-11.833-.399-17.38 0-1.478-.399-4.067-1.198-6.285h1.198c3.594 0 7.188-.74 10.781-1.11 2.796-.37 6.389-.37 8.785-1.849.399 0 .399-.37.399-.74-2.395-5.176-11.579-2.957-16.371-2.957zm-9.184-9.614c.798.37 1.597 1.109 2.396 1.109h1.198c.399 0 .798 0 1.198-.37.798-.37 1.597-.74 1.996-1.11.399-.37.799-1.109 1.198-1.848v-2.219c-.399-.74-.799-1.479-1.597-2.219-.799-.37-1.198-.739-1.997-1.109h-2.396l-2.395 1.11c-.4.37-.799 1.109-1.198 1.479v2.958c.399.74.798 1.479 1.597 2.219zm4.392-5.177c-.399 0-.399 0 0 0-.399 0 0 0 0 0z" fill="#fff"/><path d="M215.226 170.096c-4.792-6.655-4.393-12.942-2.396-20.337 1.597-6.286 1.996-12.203-.399-18.119-1.997-4.807-5.591-10.724-9.983-14.052-1.198-1.109-2.795-1.848-3.993-2.588 7.587-2.588 13.576-8.505 15.573-16.27 1.597-6.286.399-12.572-1.198-18.489-1.198-3.328-1.997-7.025-1.597-10.353.399-2.959 1.597-5.917 2.795-8.875.798-1.849-1.198-4.437-3.594-4.437-12.378.37-17.969-10.724-28.351-15.161-7.187-3.328-17.17-3.698-24.357 0-.4-1.48-.799-2.958-1.198-4.068-2.396-5.916-6.389-10.723-11.979-14.79-5.191-3.698-10.782-6.287-16.771-8.875-5.191-2.219-13.976-4.807-14.375-11.463 0-2.219-2.795-2.589-3.993-1.11-.799 1.11-1.997 2.219-2.795 3.328-1.198 1.48-1.997 3.328-3.195 4.807-2.795 2.959-7.587 4.808-11.58 6.287-7.187 2.588-14.774 4.807-20.764 9.614-5.59 4.437-9.184 13.312-7.986 20.707-1.198-.74-2.795-1.479-4.392-2.218-5.191-1.85-11.58-1.85-17.17-.74-11.58 2.588-23.958 16.64-36.736 11.463-3.195-1.11-5.59 2.588-3.993 5.177 1.198 2.588 2.795 4.437 3.194 7.395.4 3.328.4 6.656 0 9.614-.4 6.287-1.597 12.203-.799 18.49 1.598 9.244 7.987 16.269 17.17 18.858-5.59 2.588-10.78 8.135-13.176 12.572-3.195 4.807-3.594 9.984-3.195 15.531.799 6.286 3.594 12.202 3.993 18.488 0 2.589-.4 5.177-1.996 7.396-1.198 1.479-2.396 2.588-1.598 4.807 1.598 4.067 6.39 2.588 9.983 3.328 5.59 1.109 10.781 5.547 15.174 8.874 4.392 2.959 8.784 5.917 13.975 7.396 6.788 1.849 14.375 1.109 20.365-1.849 0 1.109 0 2.219.4 3.328 1.197 5.547 4.392 10.724 8.784 14.791 4.792 4.807 11.58 7.026 17.969 9.614 3.194 1.11 6.389 2.219 8.784 4.068 2.796 1.849 2.396 4.437 3.993 7.025 1.598 1.849 4.792 1.849 5.591-.739 1.996-6.656 10.382-9.984 17.17-11.833 6.788-2.219 13.976-2.958 19.965-7.026 6.389-4.437 9.583-10.353 8.386-17.749 0-.739-.4-1.479-.4-2.218 5.99 3.328 14.375 3.328 21.163.739 11.181-4.067 21.164-16.64 34.341-14.421 3.593 0 7.187-2.958 5.191-5.917zM183.681 50.659c6.788 5.177 12.777 10.354 21.163 12.203-1.198 3.697-2.396 7.395-1.997 11.093.4 6.286 3.195 11.833 3.195 18.119 0 4.437-1.598 9.984-5.191 12.942-2.795 2.589-7.587 4.437-11.181 5.547-.399-6.286-2.396-12.573-4.792-18.489-3.593-8.135-8.385-15.53-14.375-22.556-2.795-3.328-6.388-6.656-9.583-9.614-1.597-1.11-3.194-2.589-4.792-3.698.4-.74.799-1.11.799-2.219 0 .37.399-1.849.799-2.588.399-1.11.399-1.85.399-2.959.399-.37.399-.37.399-.739 7.188-5.177 18.368-2.219 25.157 2.958zm-172.9 38.827c.4-6.287 1.598-12.203 1.598-18.49 0-2.957-.4-6.655-1.997-9.983h2.396c2.795-.37 5.19-1.11 7.587-1.849 5.99-2.219 11.18-5.547 17.17-8.135 5.19-2.219 11.18-2.589 16.371-1.11 3.993 1.11 6.788 3.698 9.983 6.287l-9.583 6.656C39.53 74.695 31.945 91.704 29.948 109.453c-1.597-.739-3.993-.739-5.99-1.479-2.795-.739-5.19-1.849-7.187-3.697-4.792-3.698-6.389-9.245-5.99-14.791zM148.142 196.72c-1.597 7.026-9.184 9.984-15.573 12.203-7.986 2.588-17.968 5.177-23.958 11.093-.798-1.849-2.396-3.328-4.792-4.807-5.59-3.328-11.979-5.177-17.569-7.765-5.59-2.589-9.983-5.917-13.177-11.094-1.198-2.218-2.396-4.807-2.396-7.395 0-1.109 0-2.219.4-3.698.798-.739 1.197-1.479 1.597-2.218.399.369.798.369 1.597.739 11.58 4.807 23.559 8.505 36.337 8.505 11.58.37 23.559-2.219 33.941-7.026 2.795 1.11 3.993 8.505 3.593 11.463zm16.771-11.463c-5.191 0-8.785-1.849-11.979-5.177 3.194-2.218 6.389-4.437 9.184-6.656 3.594-2.588 6.788-7.765 10.781-9.244 4.792-1.849 2.795-9.244-2.396-7.395-3.993 1.479-6.788 4.437-9.982 7.395-3.993 3.698-8.785 7.026-13.177 9.984-9.983 6.656-21.563 10.354-33.941 10.723-11.979.37-23.16-2.588-34.34-6.286-12.379-4.067-21.164-13.312-30.747-21.447-1.198-1.109-3.195.37-2.396 1.479 5.59 7.766 11.18 14.791 18.767 20.338-6.388 7.396-17.968 6.656-25.954 2.219-5.191-2.958-9.983-6.656-15.573-8.875-2.396-1.109-5.191-1.849-7.986-2.219H11.58c.4-.739 1.198-1.848 1.597-2.958 1.198-2.588 1.597-5.177 1.597-7.765 0-6.286-1.996-12.572-2.795-18.859-.798-9.983 5.99-20.337 17.17-22.556v4.068c.4 9.614 1.997 24.775 12.778 29.952.799.369 1.997-.37 1.597-1.11-1.996-5.177-4.791-9.984-5.99-15.53-1.596-6.287-1.596-12.942-1.197-19.229.798-11.832 3.594-24.405 10.382-34.389 7.587-11.093 18.767-19.598 31.545-25.514 6.788-3.328 14.375-6.286 22.361-7.396 8.385-1.479 16.771 0 25.156 1.48.799 1.109 2.795 1.109 3.993.37l.4-.37c2.395-1.48 2.795-5.917-.799-6.287-7.187-1.11-14.774-2.588-21.962-2.588-7.187 0-13.975 1.849-20.364 4.067-5.191 1.85-9.983 3.698-14.775 6.287-3.194-4.068-3.993-8.875-2.395-14.052 1.996-6.656 7.586-10.354 13.975-12.942 6.39-2.219 12.778-4.068 18.768-7.396 2.795-1.479 5.59-3.328 7.187-6.286.399-.74.799-1.849 1.198-2.588 4.392 7.026 14.375 10.723 21.562 15.16 5.591 3.329 10.782 7.396 13.976 12.943 1.597 3.328 3.195 7.026 2.795 10.723 0 2.589-1.198 4.807-1.198 7.396 0 .74.4 1.479.4 1.849 1.597 2.958 4.791 5.176 7.187 7.765 3.195 2.958 5.99 5.916 8.386 9.244 5.191 6.656 9.583 13.682 12.777 21.447 1.997 5.177 3.594 10.724 4.393 16.27 0 .74 0 1.479.399 1.849.799 8.875-.399 18.119-3.993 26.994-1.198 2.588-7.188 10.723-1.198 11.463 6.788.739 9.184-10.354 10.382-14.421a133.25 133.25 0 003.594-18.119c1.996.739 3.593 1.848 5.59 2.958 4.392 2.958 8.385 9.244 9.983 14.051 2.396 6.286-.4 12.573-1.198 19.228-.4 4.808.399 8.505 1.597 12.943-9.583.739-16.771 5.916-25.156 11.093-5.191 2.958-10.382 5.546-16.372 5.916z" fill="#fff"/></svg>